<svg width="24" height="28" viewBox="0 0 24 28" fill="none" xmlns="http://www.w3.org/2000/svg">
<path fill-rule="evenodd" clip-rule="evenodd" d="M23.9617 6.86271L18.0161 3.42727C14.746 1.53776 12.0239 -0.00444746 11.967 9.53674e-06C11.91 0.00455761 9.20276 1.5505 5.95079 3.43546L0.0381141 6.86262L0.0191026 13.8198L0 20.7771L5.92832 24.1883C9.18884 26.0644 11.9214 27.5995 12.0007 27.5995C12.08 27.5995 14.8122 26.0644 18.0724 24.1883L24 20.7771L23.9808 13.8199L23.9617 6.86271ZM3.54024 8.93133L7.70185 6.51523C9.99078 5.18633 11.9284 4.10613 12.0077 4.11487C12.0871 4.1236 14.0211 5.21062 16.3058 6.53051L20.4596 8.93024V13.8184V18.7065L16.3021 21.1063C14.0154 22.4261 12.0795 23.5061 11.9999 23.5061C11.9203 23.5061 9.98442 22.4261 7.69776 21.1063L3.54024 18.7065V13.8189V8.93133ZM17.4841 10.5368C17.4446 10.4989 16.2265 9.78448 14.777 8.94898C13.3277 8.11338 12.0997 7.41541 12.0481 7.39767C11.9966 7.38003 10.7264 8.07636 9.2255 8.94507L6.49657 10.5246V13.8185V17.1125L9.24824 18.7003L11.9999 20.2879L14.7061 18.7285C16.1945 17.8707 17.4446 17.138 17.4841 17.1002C17.5236 17.0623 17.0425 16.7357 16.4149 16.3744L15.2739 15.7175L13.6879 16.6327C12.8157 17.1361 12.0483 17.5461 11.9827 17.5438C11.9171 17.5416 11.1676 17.1354 10.3171 16.641L8.77068 15.7423V13.8184V11.8945L10.3171 10.9958C11.1676 10.5014 11.9171 10.0951 11.9827 10.0929C12.0483 10.0907 12.8157 10.5006 13.6879 11.004L15.2739 11.9192L16.4149 11.2624C17.0425 10.9011 17.5236 10.5745 17.4841 10.5368Z" fill="#FFFFFF"/>
</svg>
