<svg id="Group_13044" data-name="Group 13044" xmlns="http://www.w3.org/2000/svg" width="153" height="198" viewBox="0 0 153 198">
  <defs>
    <style>
      .cls-1 {
        fill: #755a60;
      }

      .cls-2 {
        fill: #fff;
      }

      .cls-3 {
        fill: #ac8069;
      }

      .cls-4 {
        fill: #aee4e8;
      }

      .cls-5 {
        fill: #4f9ba8;
      }

      .cls-6 {
        fill: #81b7c1;
      }

      .cls-7 {
        fill: #d6b38c;
      }

      .cls-8 {
        fill: #f8f3d0;
      }
    </style>
  </defs>
  <path id="Path_29467" data-name="Path 29467" class="cls-1" d="M40,79.647l11.3,89.589L68.7,174,83,72.154,69.17,35Z"/>
  <path id="Path_29468" data-name="Path 29468" class="cls-2" d="M67.614,172.537l-16.163-4.41L40.313,80.03,68.461,37.058,81.694,72.525Zm1.61-137.126A.635.635,0,0,0,68.692,35a.724.724,0,0,0-.611.281L39.106,79.524a.639.639,0,0,0-.1.431l11.222,88.761a.638.638,0,0,0,.467.54l17.286,4.722.117.02a.684.684,0,0,0,.407-.1.66.66,0,0,0,.283-.453l14.207-100.9a.686.686,0,0,0-.034-.318Z"/>
  <path id="Path_29469" data-name="Path 29469" class="cls-3" d="M68,174l17.586-11.749L106,63,82.345,72.293Z"/>
  <path id="Path_29470" data-name="Path 29470" class="cls-2" d="M85.068,161.245,69.447,172.008,83.072,72.381l21.45-8.69Zm20.074-99.2L82.27,71.312a.641.641,0,0,0-.393.511L68.006,173.258a.655.655,0,0,0,.288.639.607.607,0,0,0,.284.1.636.636,0,0,0,.4-.109l17-11.715a.645.645,0,0,0,.267-.407l19.738-98.988a.65.65,0,0,0-.212-.625A.607.607,0,0,0,105.142,62.044Z"/>
  <path id="Path_29471" data-name="Path 29471" class="cls-4" d="M77.723,1,68,35.492,82.08,72l24.013-9.144L108,33.776,90.284,4.324Z"/>
  <path id="Path_29472" data-name="Path 29472" class="cls-2" d="M105.825,62.669,83.008,71.513,69.343,35.451,78.76,1.441,90.335,4.558,107.678,33.9ZM91.331,3.682a.634.634,0,0,0-.393-.3L78.474.022a.656.656,0,0,0-.5.067.638.638,0,0,0-.3.389L68.022,35.309a.648.648,0,0,0,.019.4L82.012,72.579a.623.623,0,0,0,.348.361.731.731,0,0,0,.214.059.764.764,0,0,0,.292-.043l23.827-9.237a.646.646,0,0,0,.413-.557L109,33.789a.616.616,0,0,0-.089-.365Z"/>
  <path id="Path_29473" data-name="Path 29473" class="cls-5" d="M40,80,69.381,35.772,79,1,52.884,29.594Z"/>
  <path id="Path_29474" data-name="Path 29474" class="cls-2" d="M68.211,35.46l-26.991,41.3L53.026,29.816l23.983-26.7ZM77.87.214,51.955,29.061a.676.676,0,0,0-.149.28L39.019,80.19a.651.651,0,0,0,.368.756A.594.594,0,0,0,39.6,81a.634.634,0,0,0,.594-.286L69.35,36.086a.581.581,0,0,0,.084-.188L78.977.825A.659.659,0,0,0,78.663.08.651.651,0,0,0,77.87.214Z"/>
  <path id="Path_29475" data-name="Path 29475" class="cls-3" d="M0,99.038,31.85,185,47,173.029,18.941,88Z"/>
  <path id="Path_29476" data-name="Path 29476" class="cls-2" d="M31.917,184.286,1.42,99.932,18.706,89.611l26.913,83.581ZM19.67,88.442a.652.652,0,0,0-.378-.4.64.64,0,0,0-.55.047l-18.428,11a.648.648,0,0,0-.274.78l30.985,85.707a.644.644,0,0,0,.426.4c.04.008.08.016.12.02a.643.643,0,0,0,.448-.136l14.741-11.939a.654.654,0,0,0,.208-.709Z"/>
  <path id="Path_29477" data-name="Path 29477" class="cls-5" d="M20,88l27.524,85.17L70,175,54.084,90.779Z"/>
  <path id="Path_29478" data-name="Path 29478" class="cls-2" d="M47.484,172.916,20.544,89.371,53,92.022l15.579,82.614Zm6.1-82.146L19.689,88a.629.629,0,0,0-.552.244.652.652,0,0,0-.106.6L46.4,173.725a.639.639,0,0,0,.557.445L69.308,176a.651.651,0,0,0,.68-.768L54.162,91.294A.644.644,0,0,0,53.585,90.77Z"/>
  <path id="Path_29479" data-name="Path 29479" class="cls-1" d="M32,186.047,64.352,198,70,175.839,47.125,174Z"/>
  <path id="Path_29480" data-name="Path 29480" class="cls-2" d="M63.3,196.506l-30.345-11.17,13.907-11.028,21.672,1.737ZM69.4,174.82,46.708,173a.655.655,0,0,0-.456.138l-15.009,11.9a.641.641,0,0,0-.234.609.631.631,0,0,0,.413.5l32.1,11.812a.658.658,0,0,0,.527-.036.637.637,0,0,0,.328-.407l5.6-21.9a.639.639,0,0,0-.1-.534A.633.633,0,0,0,69.4,174.82Z"/>
  <path id="Path_29481" data-name="Path 29481" class="cls-3" d="M64,198l34-11.763L69.676,175Z"/>
  <path id="Path_29482" data-name="Path 29482" class="cls-2" d="M64.623,196.38l5.295-19.885,26.435,9.716Zm33.948-10.727-28.876-10.61a.7.7,0,0,0-.547.026.655.655,0,0,0-.343.41l-5.784,21.726a.619.619,0,0,0,.193.627.661.661,0,0,0,.4.165.673.673,0,0,0,.267-.028l34.661-11.113a.63.63,0,0,0,.027-1.2Z"/>
  <path id="Path_29483" data-name="Path 29483" class="cls-6" d="M18.489,88.353,20,70,0,99Z"/>
  <path id="Path_29484" data-name="Path 29484" class="cls-2" d="M18.277,88.062l-15.562,9.3L19.546,72.021Zm2.3-19.031a.642.642,0,0,0-.731.248L.108,99a.652.652,0,0,0,.061.8.626.626,0,0,0,.41.2.654.654,0,0,0,.37-.085L19.2,89a.644.644,0,0,0,.309-.5L21,69.689A.648.648,0,0,0,20.576,69.031Z"/>
  <path id="Path_29485" data-name="Path 29485" class="cls-4" d="M20,89.2,54,92,21.515,70Z"/>
  <path id="Path_29486" data-name="Path 29486" class="cls-2" d="M20.319,88l1.365-17.21L50.958,90.509Zm1.169-18.9a.639.639,0,0,0-.629-.045.653.653,0,0,0-.357.533L19,88.542a.64.64,0,0,0,.583.694L53.311,92a.639.639,0,0,0,.655-.432.652.652,0,0,0-.249-.748Z"/>
  <path id="Path_29487" data-name="Path 29487" class="cls-6" d="M70,175.283,97.517,186,127,94.178,97.691,76Z"/>
  <path id="Path_29488" data-name="Path 29488" class="cls-2" d="M97.1,185.5,70.43,175.171,98.068,76.652,126.58,94.231Zm.917-110.4a.627.627,0,0,0-.574-.049.649.649,0,0,0-.387.427L69.024,175.387a.659.659,0,0,0,.389.788l27.858,10.786a.826.826,0,0,0,.18.036.626.626,0,0,0,.331-.059.646.646,0,0,0,.337-.39l29.85-92.4a.65.65,0,0,0-.28-.751Z"/>
  <path id="Path_29489" data-name="Path 29489" class="cls-1" d="M64,198l50-1.539L97.665,186Z"/>
  <path id="Path_29490" data-name="Path 29490" class="cls-2" d="M68.08,196.528,97.705,186.4l14.371,8.822Zm30.045-11.436a.682.682,0,0,0-.551-.059L63.451,196.7a.669.669,0,0,0-.441.755.655.655,0,0,0,.6.546.177.177,0,0,0,.072,0l50.682-1.495a.658.658,0,0,0,.617-.5.672.672,0,0,0-.3-.746Z"/>
  <path id="Path_29491" data-name="Path 29491" class="cls-7" d="M98,186.209,114.42,196,153,90l-24.795,4.282Z"/>
  <path id="Path_29492" data-name="Path 29492" class="cls-2" d="M113.636,195.382,98.428,186.2l29.763-91.665,23.167-4.049Zm38.6-106.372L127.58,93.32a.641.641,0,0,0-.508.438l-30.04,92.531a.648.648,0,0,0,.284.759l16.328,9.855a.627.627,0,0,0,.284.1.7.7,0,0,0,.272-.033.674.674,0,0,0,.392-.4l38.369-106.7a.647.647,0,0,0-.723-.859Z"/>
  <path id="Path_29493" data-name="Path 29493" class="cls-8" d="M98,75.911,128,94l9-31.447L117.421,61Z"/>
  <path id="Path_29494" data-name="Path 29494" class="cls-2" d="M127.781,93.379,98.831,76.36l18.792-14.068,18.854,1.458Zm9.607-30.837L117.475,61a.7.7,0,0,0-.463.128L97.256,75.917a.625.625,0,0,0,.063,1.049l30.518,17.94a.7.7,0,0,0,.294.092.706.706,0,0,0,.294-.044.649.649,0,0,0,.4-.423l9.153-31.187a.617.617,0,0,0-.094-.537A.675.675,0,0,0,137.388,62.542Z"/>
  <path id="Path_29495" data-name="Path 29495" class="cls-4" d="M127,94l26-4.331L136.445,62Z"/>
  <path id="Path_29496" data-name="Path 29496" class="cls-2" d="M128.558,93.535l8.269-29.221,14.5,25.262Zm8.631-31.208a.667.667,0,0,0-.646-.324.643.643,0,0,0-.546.468l-8.972,31.7a.645.645,0,0,0,.143.613A.66.66,0,0,0,127.6,95a.9.9,0,0,0,.164-.006l24.7-4.293a.659.659,0,0,0,.478-.362.636.636,0,0,0-.024-.6Z"/>
  <path id="Path_29497" data-name="Path 29497" class="cls-8" d="M58,174.019,70.141,175,82,138,63.3,148.226Z"/>
  <path id="Path_29498" data-name="Path 29498" class="cls-2" d="M69.68,174.657l-11.233-.9L63.689,148.5l17.529-9.492Zm12.352-37.576L62.794,147.5a.645.645,0,0,0-.329.443l-5.452,26.271a.661.661,0,0,0,.117.526A.676.676,0,0,0,57.6,175l12.488,1a.655.655,0,0,0,.677-.454l12.2-37.69a.653.653,0,0,0-.936-.773Z"/>
  <path id="Path_29499" data-name="Path 29499" class="cls-6" d="M70,175.285,82,180l-.25-42Z"/>
  <path id="Path_29500" data-name="Path 29500" class="cls-2" d="M70.488,175.161l10.91-33.4.232,37.626ZM82.7,137.66a.657.657,0,0,0-.563-.641.619.619,0,0,0-.734.446L69.032,175.348a.657.657,0,0,0,.392.816l12.637,4.791a.749.749,0,0,0,.186.039h.017a.678.678,0,0,0,.734-.6.7.7,0,0,0-.033-.263Z"/>
  <path id="Path_29501" data-name="Path 29501" class="cls-5" d="M82.258,180.028,98,186,82,138Z"/>
  <path id="Path_29502" data-name="Path 29502" class="cls-2" d="M82.628,179.839l-.239-38.024,14.839,43.427Zm-.3-42.385a.684.684,0,0,0-.755-.446.666.666,0,0,0-.572.651l.271,42.635a.662.662,0,0,0,.435.608l16.369,6.059a.8.8,0,0,0,.19.037.689.689,0,0,0,.525-.179.638.638,0,0,0,.177-.677Z"/>
</svg>
