<svg xmlns="http://www.w3.org/2000/svg" width="12.174" height="20" viewBox="0 0 12.174 20">
  <path id="Path_30015" data-name="Path 30015" d="M0,13.973c.217,2.381,2.216,4.071,5.259,4.29V20H6.787V18.263c3.325-.256,5.387-2.054,5.387-4.714,0-2.271-1.387-3.586-4.329-4.326L6.787,8.956V3.524A3.114,3.114,0,0,1,9.819,5.833h2.153c-.243-2.286-2.256-3.926-5.185-4.107V0H5.259V1.761C2.42,2.09.47,3.864.47,6.27c0,2.077,1.415,3.547,3.9,4.167l.893.231v5.759A3.381,3.381,0,0,1,2.14,13.973Zm4.967-5.48C3.439,8.117,2.623,7.314,2.623,6.184c0-1.349,1.031-2.344,2.636-2.611V8.566l-.293-.071ZM7.3,11.167c1.885.461,2.712,1.227,2.712,2.527,0,1.567-1.21,2.611-3.222,2.77V11.043l.51.123Z"/>
</svg>
