<svg xmlns="http://www.w3.org/2000/svg" width="54" height="54" viewBox="0 0 54 54">
  <defs>
    <style>
      .cls-1 {
        fill: #B07EFA;
      }
    </style>
  </defs>
  <path id="Path_29917" data-name="Path 29917" class="cls-1" d="M47.352,13.5v8.775A18.563,18.563,0,0,0,22.377,47.25H8.54A8.438,8.438,0,0,1,.1,38.813V13.5ZM38.915,0a8.438,8.438,0,0,1,8.438,8.438v1.688H.1V8.438A8.438,8.438,0,0,1,8.54,0ZM36.805,32.063a2.109,2.109,0,1,1,.618,1.492A2.11,2.11,0,0,1,36.805,32.063Zm3.8,13.5a1.688,1.688,0,1,1-3.375,0v-6.75a1.688,1.688,0,0,1,3.375,0Zm-16.875-6.75a15.187,15.187,0,1,1,4.448,10.739A15.188,15.188,0,0,1,23.727,38.813Zm3.375,0a11.812,11.812,0,1,0,3.46-8.353A11.811,11.811,0,0,0,27.1,38.813Z" transform="translate(-0.102)"/>
</svg>

