<svg id="Group_13108" data-name="Group 13108" xmlns="http://www.w3.org/2000/svg" width="48" height="48" viewBox="0 0 48 48">
  <defs>
    <style>
      .cls-1 {
        fill: #B07EFA;
      }
    </style>
  </defs>
  <path id="Path_29918" data-name="Path 29918" class="cls-1" d="M0,40.857H48v3.429H0Z" transform="translate(0 3.714)"/>
  <path id="Path_29919" data-name="Path 29919" class="cls-1" d="M42.572,15.428a1.714,1.714,0,0,0,1.714-1.714V8.571a1.714,1.714,0,0,0-1.131-1.611L24.3.1a1.714,1.714,0,0,0-1.166,0L4.274,6.959A1.714,1.714,0,0,0,3.143,8.571v5.143a1.714,1.714,0,0,0,1.714,1.714H6.571V37.714H3.143v3.429H44.286V37.714H40.858V15.428Zm-36-5.657,17.143-6.24,17.143,6.24V12H6.571ZM27.143,37.714H20.286V15.428h6.857ZM10,15.428h6.857V37.714H10ZM37.429,37.714H30.572V15.428h6.857Z" transform="translate(0.286 0)"/>
</svg>

