<svg xmlns="http://www.w3.org/2000/svg" width="20" height="20" viewBox="0 0 20 20">
  <defs>
    <style>
      .cls-1 {
        fill-rule: evenodd;
      }
    </style>
  </defs>
  <path id="Path_30016" data-name="Path 30016" class="cls-1" d="M12,0A3,3,0,0,0,9,3H5A2,2,0,0,0,3,5V8a3,3,0,0,0,0,6v4a2,2,0,0,0,2,2H8.25A1.75,1.75,0,0,0,10,18.25,1.25,1.25,0,0,1,11.25,17h1.5A1.25,1.25,0,0,1,14,18.25,1.751,1.751,0,0,0,15.75,20H18a2,2,0,0,0,2-2V14.75A1.75,1.75,0,0,0,18.25,13,1.25,1.25,0,0,1,17,11.75v-1.5A1.25,1.25,0,0,1,18.25,9,1.75,1.75,0,0,0,20,7.25V5a2,2,0,0,0-2-2H15a3,3,0,0,0-3-3Z"/>
</svg>
