<svg xmlns="http://www.w3.org/2000/svg" width="397" height="300" viewBox="0 0 638 706.049">
  <defs>
    <style>
      .cls-1, .cls-14 {
        fill: #a7b1f7;
      }

      .cls-2, .cls-5 {
        fill: #c4d1f7;
      }

      .cls-3 {
        fill: #aed4f4;
      }

      .cls-10, .cls-11, .cls-12, .cls-13, .cls-14, .cls-3, .cls-4, .cls-5, .cls-6, .cls-7, .cls-8, .cls-9 {
        fill-rule: evenodd;
      }

      .cls-4 {
        fill: #c1ecfa;
      }

      .cls-6 {
        fill: #a7b1f4;
      }

      .cls-7 {
        fill: #9e96f7;
      }

      .cls-8 {
        fill: #ba97ed;
      }

      .cls-9 {
        fill: #a195d1;
      }

      .cls-10 {
        fill: #d99bed;
      }

      .cls-11 {
        fill: #f4d1f9;
      }

      .cls-12 {
        fill: #d99bf9;
      }

      .cls-13 {
        fill: #d1fcfd;
      }

      .cls-15 {
        fill: #a16552;
      }

      .cls-16 {
        fill: #f5dcb4;
      }

      .cls-17, .cls-21 {
        fill: #4e3f3f;
      }

      .cls-18 {
        fill: #e6646e;
      }

      .cls-19 {
        fill: #5d5360;
      }

      .cls-20 {
        fill: #fff;
      }

      .cls-21 {
        opacity: 0.35;
      }
    </style>
  </defs>
  <g id="Group_13144" data-name="Group 13144" transform="translate(18603 20238.998)">
    <g id="Group_11592" data-name="Group 11592" transform="translate(-18460.795 -20238.998)">
      <path id="Polygon_14" data-name="Polygon 14" class="cls-1" d="M6.894,0l6.894,66.564H0Z" transform="matrix(0.994, -0.105, 0.105, 0.994, 209.69, 1.447)"/>
      <path id="Polygon_15" data-name="Polygon 15" class="cls-2" d="M4.494,0,8.988,52.768H0Z" transform="translate(212.878 3.337) rotate(-14.008)"/>
      <path id="Path_5059" data-name="Path 5059" class="cls-3" d="M260.317-39.778,177.63-57.707,142.81,43.455l60.912-67.519,37.47,36.729Z" transform="translate(-142.81 314.635)"/>
      <path id="Path_5060" data-name="Path 5060" class="cls-4" d="M203.768-53.268,142.81,14.13,280.729,85.253,241.266-16.6Z" transform="translate(-142.81 343.626)"/>
      <path id="Path_5062" data-name="Path 5062" class="cls-4" d="M236.75-60.244,192.275,21.822,293.02,8.34l22.386-21.8Z" transform="translate(180.314 298.057)"/>
      <path id="Path_5064" data-name="Path 5064" class="cls-5" d="M171.547-91.706l6.106,55.492,35.005,297.742,2.335.158,68.454-20.736Z" transform="translate(45.185 92.588)"/>
      <path id="Path_5065" data-name="Path 5065" class="cls-6" d="M171.6-91.7,283.047,241.612l44.271-13.593Z" transform="translate(45.253 92.573)"/>
      <path id="Path_5066" data-name="Path 5066" class="cls-7" d="M217.178-70.771,155.821,98.28l89.923-84.8Z" transform="translate(-57.55 229.298)"/>
      <path id="Path_5067" data-name="Path 5067" class="cls-8" d="M155.874-48.449,332.607,124.346,281.479-27.147Z" transform="translate(-57.473 375.11)"/>
      <path id="Path_5068" data-name="Path 5068" class="cls-9" d="M276.719-49.337,232.457-35.763,179.309,130.249Z" transform="translate(95.76 369.308)"/>
      <path id="Path_5069" data-name="Path 5069" class="cls-10" d="M245.629-59.571,155.873,24.978l126.105,21.4Z" transform="translate(-57.481 302.258)"/>
      <path id="Path_5070" data-name="Path 5070" class="cls-11" d="M172.493-45.567l50.961,151.03L206.628-39.952Z" transform="translate(51.717 394.123)"/>
      <path id="Path_5071" data-name="Path 5071" class="cls-12" d="M247.691-47.561,178.968-26.8h-1.946l17.225,145.47Z" transform="translate(80.84 380.912)"/>
      <path id="Path_5072" data-name="Path 5072" class="cls-13" d="M266.994-60.244,187.708-48l34.218,70.3Z" transform="translate(150.478 298.057)"/>
      <path id="Path_5061" data-name="Path 5061" class="cls-3" d="M332.773,235.392,155.8,62.375l39.555,102.172ZM531.058,42.111l-101,13.676-97.4,179.6Zm22.33-21.246L489.7-65.444,395.872-14,474.9-25.824Z" transform="translate(-57.594 264.091)"/>
      <path id="Path_5063" data-name="Path 5063" class="cls-14" d="M221.012-91.7,163.991,65.445l28.557,84.734,35.6,105.674,34.2,5.81Z" transform="translate(-4.446 92.573)"/>
    </g>
    <g id="ape-face" transform="translate(-18695.215 -20027.738)">
      <path id="Path_30035" data-name="Path 30035" class="cls-15" d="M161.969,417.52a138.95,138.95,0,0,0-4.934,36.192v2.535a186.713,186.713,0,0,1-4.934,43.894c-6.814-2.418-13.839-7.321-20.523-15.79-17.638-22.3-11.753-58.115,9.968-66.539,8.218-3.18,15.091-2.508,20.465-.422C161.991,417.44,161.987,417.475,161.969,417.52Z" transform="translate(-15.989 -173.631)"/>
      <path id="Path_30036" data-name="Path 30036" class="cls-16" d="M161.969,417.52a138.95,138.95,0,0,0-4.934,36.192v2.535a186.713,186.713,0,0,1-4.934,43.894c-6.814-2.418-13.839-7.321-20.523-15.79-17.638-22.3-11.753-58.115,9.968-66.539,8.218-3.18,15.091-2.508,20.465-.422C161.991,417.44,161.987,417.475,161.969,417.52Z" transform="translate(-15.989 -173.631)"/>
      <path id="Path_30037" data-name="Path 30037" class="cls-15" d="M898.312,484.329c-6.684,8.46-13.7,13.363-20.509,15.777a185.076,185.076,0,0,1-4.935-43.885v-2.535a138.674,138.674,0,0,0-4.988-36.336c5.383-2.086,12.246-2.759,20.464.422C910.052,426.214,915.933,462.025,898.312,484.329Z" transform="translate(-427.711 -173.609)"/>
      <path id="Path_30038" data-name="Path 30038" class="cls-16" d="M898.312,484.329c-6.684,8.46-13.7,13.363-20.509,15.777a185.076,185.076,0,0,1-4.935-43.885v-2.535a138.674,138.674,0,0,0-4.988-36.336c5.383-2.086,12.246-2.759,20.464.422C910.052,426.214,915.933,462.025,898.312,484.329Z" transform="translate(-427.711 -173.609)"/>
      <path id="Path_30039" data-name="Path 30039" class="cls-15" d="M503.033,487.344a39.339,39.339,0,0,0-4.324,33.752c2.889,8.523,5.477,18.15,5.477,25.318,0,52.436-49.681,94.939-110.972,94.939s-110.976-42.5-110.976-94.939c0-7.177,2.588-16.8,5.482-25.318a39.35,39.35,0,0,0-4.32-33.747,61.7,61.7,0,0,1-4.1-7.532,60.111,60.111,0,0,1-5.5-25.193c0-34.815,29.638-63.045,66.216-63.045a68.428,68.428,0,0,1,33.725,8.788,39.408,39.408,0,0,0,38.946,0,68.4,68.4,0,0,1,33.725-8.779c36.573,0,66.221,28.23,66.221,63.045a60.143,60.143,0,0,1-5.477,25.188A62.255,62.255,0,0,1,503.033,487.344Z" transform="translate(-100.128 -160.372)"/>
      <path id="Path_30040" data-name="Path 30040" class="cls-16" d="M503.033,487.344a39.339,39.339,0,0,0-4.324,33.752c2.889,8.523,5.477,18.15,5.477,25.318,0,52.436-49.681,94.939-110.972,94.939s-110.976-42.5-110.976-94.939c0-7.177,2.588-16.8,5.482-25.318a39.35,39.35,0,0,0-4.32-33.747,61.7,61.7,0,0,1-4.1-7.532,60.111,60.111,0,0,1-5.5-25.193c0-34.815,29.638-63.045,66.216-63.045a68.428,68.428,0,0,1,33.725,8.788,39.408,39.408,0,0,0,38.946,0,68.4,68.4,0,0,1,33.725-8.779c36.573,0,66.221,28.23,66.221,63.045a60.143,60.143,0,0,1-5.477,25.188A62.255,62.255,0,0,1,503.033,487.344Z" transform="translate(-100.128 -160.372)"/>
      <path id="Path_30041" data-name="Path 30041" class="cls-17" d="M406.159,762.89a6.374,6.374,0,0,0-6.325,7.2c3.921,28.1,30.549,49.82,62.847,49.82s58.926-21.73,62.861-49.825a6.379,6.379,0,0,0-6.339-7.2Z" transform="translate(-169.596 -365.117)"/>
      <path id="Path_30042" data-name="Path 30042" class="cls-18" d="M458.62,851.231a68.912,68.912,0,0,0,73.017,0c-4.576-15.853-19.226-12.206-36.506-12.206S463.2,835.378,458.62,851.231Z" transform="translate(-202.04 -406.899)"/>
      <path id="Path_30043" data-name="Path 30043" class="cls-15" d="M468.131,232.459c-13.1-5.1-23.555-2.409-30.872,1.8a162.071,162.071,0,0,0-6.177-15.49q-2.544-5.567-5.5-10.95c-20.092-36.784-53.889-67.288-92.669-80.185l-.767-20.873-25.094,15.073c-1-.117-2.01-.224-3.023-.319-1.857-.166-3.7-.3-5.571-.372l-3.669-15.8-1.072-4.6c-1.252,0-2.476.04-3.669.139-23.362,1.893-34.99,23.116-36.784,26.754-38.771,12.9-72.546,43.419-92.642,80.172q-2.956,5.383-5.5,10.95a161.765,161.765,0,0,0-6.177,15.5c-.305-.184-.619-.363-.942-.529-7.267-3.9-17.365-6.155-29.93-1.283-27.62,10.721-35.071,56.2-12.7,84.545,9.124,11.542,18.729,17.863,27.974,20.671-.121.52-.238,1.045-.35,1.566a108.412,108.412,0,0,0-2.5,23.219c0,54.145,39.924,100.708,97.151,121.2a189.544,189.544,0,0,0,41.539,9.725,199.858,199.858,0,0,0,22.165,1.417H293.1c89.8,0,162.6-59.272,162.6-132.374a108.418,108.418,0,0,0-2.5-23.219c-.112-.52-.229-1.045-.354-1.557,9.25-2.817,18.841-9.138,27.97-20.684C503.179,288.645,495.723,243.153,468.131,232.459Zm-322.149,11.43a138.949,138.949,0,0,0-4.934,36.192v2.535a186.714,186.714,0,0,1-4.934,43.894c-6.814-2.418-13.839-7.321-20.523-15.79-17.638-22.3-11.753-58.115,9.968-66.539,8.218-3.18,15.09-2.508,20.465-.422C146,243.808,146,243.844,145.982,243.889Zm261.047,75.56a62.263,62.263,0,0,1-4.1,7.523,39.339,39.339,0,0,0-4.324,33.752c2.889,8.523,5.477,18.15,5.477,25.318,0,52.435-49.681,94.939-110.972,94.939s-111-42.5-111-94.939c0-7.177,2.588-16.8,5.482-25.318a39.349,39.349,0,0,0-4.32-33.747,61.7,61.7,0,0,1-4.1-7.532,60.111,60.111,0,0,1-5.5-25.193c0-34.815,29.638-63.045,66.216-63.045A68.427,68.427,0,0,1,273.614,240a39.408,39.408,0,0,0,38.946,0,68.4,68.4,0,0,1,33.725-8.779c36.573,0,66.221,28.23,66.221,63.045a60.142,60.142,0,0,1-5.477,25.188Zm63.6-8.73c-6.706,8.46-13.727,13.363-20.532,15.777a185.078,185.078,0,0,1-4.934-43.885v-2.534a138.673,138.673,0,0,0-4.988-36.336c5.383-2.086,12.246-2.759,20.465.422,21.707,8.442,27.588,44.253,9.968,66.557Z" transform="translate(-0.001 0)"/>
      <rect id="Rectangle_5440" data-name="Rectangle 5440" class="cls-17" width="10.663" height="24.219" rx="5.331" transform="matrix(0.415, -0.91, 0.91, 0.415, 263.247, 355.327)"/>
      <rect id="Rectangle_5441" data-name="Rectangle 5441" class="cls-17" width="10.663" height="24.219" rx="5.331" transform="matrix(-0.415, -0.91, 0.91, -0.415, 300.914, 365.405)"/>
      <path id="Path_30044" data-name="Path 30044" class="cls-17" d="M389.517,536.593h0c-10.5,0-19.007-8.075-19.007-18.015v-6c0-9.95,8.523-18.015,19.007-18.015h0c10.5,0,19.011,8.075,19.011,18.015v6C408.528,528.527,400.018,536.593,389.517,536.593Z" transform="translate(-153.456 -217.157)"/>
      <path id="Path_30045" data-name="Path 30045" class="cls-19" d="M412.88,494.56v21.016a9.519,9.519,0,0,0,19.011,0v-3C431.891,502.626,423.381,494.56,412.88,494.56Z" transform="translate(-176.819 -217.157)"/>
      <ellipse id="Ellipse_2519" data-name="Ellipse 2519" class="cls-20" cx="6.334" cy="6.007" rx="6.334" ry="6.007" transform="translate(229.732 283.41)"/>
      <path id="Path_30046" data-name="Path 30046" class="cls-17" d="M643.757,536.593h0c-10.5,0-19.007-8.075-19.007-18.015v-6c0-9.95,8.523-18.015,19.007-18.015h0c10.5,0,19.011,8.075,19.011,18.015v6C662.768,528.527,654.258,536.593,643.757,536.593Z" transform="translate(-293.647 -217.157)"/>
      <path id="Path_30047" data-name="Path 30047" class="cls-19" d="M667.12,494.56v21.016a9.519,9.519,0,0,0,19.011,0v-3C686.131,502.626,677.621,494.56,667.12,494.56Z" transform="translate(-317.01 -217.157)"/>
      <ellipse id="Ellipse_2520" data-name="Ellipse 2520" class="cls-20" cx="6.334" cy="6.007" rx="6.334" ry="6.007" transform="translate(343.776 283.41)"/>
      <path id="Path_30048" data-name="Path 30048" class="cls-21" d="M294.781,105.363c-4.248-.422-13.565,6.28-24.713,17.881-2.777,2.889-5.675,6.1-8.644,9.573-21.846,25.628-47.174,66.037-55.849,107.509-14.566,69.621-20.478,150.4,5.217,195.2C232.571,473.5,269.171,493.4,269.171,493.4a189.55,189.55,0,0,1-41.539-9.743c-57.213-20.483-97.151-67.046-97.151-121.191a108.413,108.413,0,0,1,2.5-23.219c.112-.52.229-1.045.35-1.565-9.245-2.808-18.841-9.129-27.974-20.671-22.367-28.342-14.916-73.824,12.686-84.527,12.56-4.872,22.663-2.615,29.93,1.283.323.166.637.345.942.529a161.751,161.751,0,0,1,6.177-15.5q2.544-5.567,5.5-10.95c20.1-36.753,53.871-67.288,92.642-80.172,1.817-3.638,13.458-24.861,36.784-26.754,1.193-.1,2.418-.148,3.669-.139Z" transform="translate(0 -0.021)"/>
    </g>
  </g>
</svg>
