<svg xmlns="http://www.w3.org/2000/svg" width="22.508" height="20" viewBox="0 0 22.508 20">
  <defs>
    <style>
      .cls-1 {
        fill-rule: evenodd;
      }
    </style>
  </defs>
  <path id="Path_30013" data-name="Path 30013" class="cls-1" d="M10.348.833a2.141,2.141,0,0,1,2.788,0l6.783,5.813,2.662,2.13a1.071,1.071,0,1,1-1.338,1.672L20.306,9.7v8.477a2.141,2.141,0,0,1-2.141,2.141H13.883V14.965a2.141,2.141,0,0,0-4.282,0v5.353H5.319a2.141,2.141,0,0,1-2.141-2.141V9.7l-.937.749A1.07,1.07,0,1,1,.9,8.777l2.662-2.13L10.348.833Z" transform="translate(-0.475 -0.316)"/>
</svg>
