<svg xmlns="http://www.w3.org/2000/svg" width="35.625" height="26.332" viewBox="0 0 35.625 26.332">
  <defs>
    <style>
      .cls-1 {
        fill: #b07efa;
      }
    </style>
  </defs>
  <g id="Group_13151" data-name="Group 13151" transform="translate(-0.783 -0.744)">
    <path id="Path_30059" data-name="Path 30059" class="cls-1" d="M17.4,20.364a1.32,1.32,0,0,1-1.247.011A3.285,3.285,0,0,1,17.4,20.364Z"/>
    <path id="Path_30060" data-name="Path 30060" class="cls-1" d="M9.95,6.115c-.143.362-.357.584-.773.4Z"/>
    <path id="Path_30061" data-name="Path 30061" class="cls-1" d="M33.55,11.682a.577.577,0,0,1-.773,0Z"/>
    <path id="Path_30062" data-name="Path 30062" class="cls-1" d="M33.55,11.682a1.184,1.184,0,0,1-.773,0,3.169,3.169,0,0,0-2.738,3.777.57.57,0,0,1-.331.7q-4.88,2.627-9.743,5.288a.532.532,0,0,1-.8-.128,2.66,2.66,0,0,0-1.766-.954,3.1,3.1,0,0,1-1.247.011,2.781,2.781,0,0,0-1.884,1.212c-.293.465-.526.425-.935.205q-4.293-2.31-8.6-4.585a4.2,4.2,0,0,1-1.954-4.652c.319-1.1.82-1.319,1.812-.792,3.477,1.846,6.967,3.667,10.424,5.551a2.543,2.543,0,0,0,2.67.023c5.525-2.947,11.072-5.851,16.611-8.772.349-.184.737-.341.732-.846,0-.535-.408-.706-.792-.889-3.981-1.893-7.992-3.722-11.912-5.747a2.463,2.463,0,0,0-2.354-.073Q14.957,3.557,9.95,6.115a.87.87,0,0,1-.334.305.853.853,0,0,1-.439.094c-1.833.916-3.639,1.894-5.507,2.73A4.4,4.4,0,0,0,.783,12.619v1.77a.34.34,0,0,1,.081.216,5.03,5.03,0,0,0,2.86,4.476q4.4,2.285,8.779,4.606a2.4,2.4,0,0,1,1.223,1.265,3.3,3.3,0,0,0,3.1,2.122,3.155,3.155,0,0,0,3.13-2.261,2.634,2.634,0,0,1,1.555-1.747q4.466-2.413,8.9-4.878a1.256,1.256,0,0,1,1.331-.085,3.255,3.255,0,0,0,4.663-2.589V14.389C35.954,12.943,35.174,11.853,33.55,11.682Zm-16.763,13a1.065,1.065,0,0,1-.736-.336,1.1,1.1,0,0,1-.3-.763,1.076,1.076,0,0,1,.095-.407,1.064,1.064,0,0,1,.242-.339,1.044,1.044,0,0,1,.352-.218,1.032,1.032,0,0,1,.407-.063,1.015,1.015,0,0,1,.4.084,1.029,1.029,0,0,1,.338.238,1.055,1.055,0,0,1,.285.766,1.086,1.086,0,0,1-.334.747A1.052,1.052,0,0,1,16.787,24.683Zm16.373-8.7a1.05,1.05,0,0,1-.739-.332,1.085,1.085,0,0,1-.292-.765A1.121,1.121,0,0,1,33.186,13.8a1.1,1.1,0,0,1,.732.348,1.131,1.131,0,0,1,.3.763,1.1,1.1,0,0,1-.316.756A1.069,1.069,0,0,1,33.16,15.984Z"/>
  </g>
</svg>
