<svg xmlns="http://www.w3.org/2000/svg" xmlns:xlink="http://www.w3.org/1999/xlink" viewBox="0 0 765.7 571.43"><defs><style>.cls-1{fill:url(#Naamloos_verloop_7);}.cls-2{fill:#9691c6;}.cls-3{fill:#a7aed8;}.cls-4{fill:#c3e5f5;}.cls-5{fill:#a7afd9;}.cls-6{fill:#ad94c6;}.cls-7{fill:#bf9bc8;}.cls-8{fill:#eacfe5;}</style><linearGradient id="Naamloos_verloop_7" x1="54.18" y1="299.74" x2="695.29" y2="299.74" gradientUnits="userSpaceOnUse"><stop offset="0" stop-color="#c6d2f9"/><stop offset="1" stop-color="#f5d3fa"/></linearGradient></defs><g id="Layer_2" data-name="Layer 2"><g id="Laag_1" data-name="Laag 1"><polygon class="cls-1" points="264.83 527.33 219.03 408.3 134.31 384.97 93.1 333.1 54.18 182.72 99.97 109.35 182.4 72.16 649.5 92.38 695.29 157.37 695.29 334.24 587.67 393.17 374.73 408.3 312.91 485.69 264.83 527.33"/><polygon class="cls-2" points="264.83 527.33 259.96 571.43 324.36 533.65 336.38 507.9 312.91 485.69 264.83 527.33"/><polygon class="cls-3" points="312.91 485.69 350.17 410.1 451.42 402.85 437.44 429.33 391.33 450.08 336.38 507.9 312.91 485.69"/><polygon class="cls-4" points="695.29 334.24 587.67 393.17 604.27 429.33 668.67 402.85 706.45 361.93 695.29 334.24"/><polygon class="cls-5" points="706.45 361.93 759.02 316.32 748.72 267.48 708.26 248.01 695.29 250.31 679.83 285.8 695.29 334.24 706.45 361.93"/><polygon class="cls-2" points="748.72 267.48 765.7 196.21 765.7 170.45 741.66 155 695.29 157.37 695.29 250.31 708.26 248.01 748.72 267.48"/><polygon class="cls-4" points="700.67 157.09 708.26 248.01 695.29 250.31 695.29 157.37 700.67 157.09"/><polygon class="cls-6" points="649.5 92.38 695.29 60.55 742.51 92.38 741.66 155 695.29 157.37 649.5 92.38"/><polygon class="cls-7" points="695.29 60.55 561.34 19.33 520.86 43.37 538.52 105.16 649.5 92.38 695.29 60.55"/><polygon class="cls-6" points="437.44 429.33 451.42 402.85 524.71 385.4 587.67 393.17 604.27 429.33 562.2 455.37 468.61 443.5 437.44 429.33"/><polygon class="cls-8" points="649.5 92.38 649.5 46.46 695.29 60.55 649.5 92.38"/><polygon class="cls-4" points="538.52 105.16 421.56 82.51 434.12 51.49 520.86 43.37 538.52 105.16"/><polygon class="cls-8" points="561.34 19.33 501.75 6.66 434.12 51.49 520.86 43.37 561.34 19.33"/><polygon class="cls-5" points="434.12 51.49 359.8 43.37 316.15 46.46 305.99 77.5 336.38 88.45 382.16 97.1 421.56 82.51 434.12 51.49"/><polygon class="cls-7" points="359.8 43.37 438.84 19.33 501.75 6.66 434.12 51.49 359.8 43.37"/><polygon class="cls-6" points="219.03 408.3 264.83 527.33 259.96 571.43 197.01 450.81 219.03 408.3"/><polygon class="cls-5" points="219.03 408.3 197.01 450.81 150.21 423.08 125.05 420.38 119.54 405.78 134.31 384.97 189.93 393.2 219.03 408.3"/><polygon class="cls-2" points="125.05 420.38 106.17 402.85 60.75 359.38 79.04 337.56 93.1 333.1 134.31 384.97 119.54 405.78 125.05 420.38"/><polygon class="cls-8" points="60.75 359.38 33.03 290.37 63.11 290.37 80.56 284.67 93.1 333.1 79.04 337.56 60.75 359.38"/><polygon class="cls-4" points="33.03 290.37 0 215.85 33.03 183.61 54.18 182.72 88.08 254.39 80.56 284.67 63.11 290.37 33.03 290.37"/><polygon class="cls-2" points="316.15 46.46 225.91 13.74 141.56 9.02 120.33 57.38 151 101.03 210.57 105.16 305.99 77.5 316.15 46.46"/><polygon class="cls-4" points="151 101.03 174.59 46.46 141.56 9.02 120.33 57.38 151 101.03"/><polygon class="cls-7" points="14.81 201.4 2.95 148.81 37.75 115.78 83.83 135.21 54.18 182.72 33.03 183.61 14.81 201.4"/><polygon class="cls-8" points="37.75 115.78 70.19 62.25 120.33 57.38 151 101.03 108.53 115.78 83.83 135.21 37.75 115.78"/><polygon class="cls-5" points="174.59 46.46 242.23 43.37 316.15 46.46 225.91 13.74 141.56 9.02 174.59 46.46"/><rect class="cls-6" x="165.67" y="180.63" width="442.66" height="19.38"/><rect class="cls-3" x="165.67" y="296.91" width="442.66" height="19.38"/><rect class="cls-2" x="165.67" y="242.65" width="340.82" height="19.38"/><polygon class="cls-4" points="438.84 19.33 328.46 0 225.91 13.74 316.15 46.46 362.1 43.63 438.84 19.33"/></g></g></svg>