<svg xmlns="http://www.w3.org/2000/svg" xmlns:xlink="http://www.w3.org/1999/xlink" viewBox="0 0 873.17 842.45"><defs><style>.cls-1{isolation:isolate;}.cls-2{fill:#a7aed8;}.cls-3{fill:#c2e4f3;}.cls-4{fill:#eacfe5;}.cls-5{fill:#c3ceea;}.cls-6{fill:#a095c7;}.cls-7{fill:#9691c6;}.cls-8{fill:#39435b;}.cls-9{fill:#384b72;}.cls-10{fill:#465172;}.cls-11{fill:#5a6382;}.cls-12{fill:url(#Naamloos_verloop_11);}.cls-13{fill:url(#Naamloos_verloop_7);}.cls-14{fill:#afd5f5;}.cls-15{fill:#c2edfc;}.cls-16{fill:#a7b2f9;}.cls-17{fill:#c6d2f9;}.cls-18{fill:#a8b2f5;}.cls-19{fill:#9f97f7;}.cls-20{fill:#bb98ef;}.cls-21{fill:#a296d1;}.cls-22{fill:#d99cee;}.cls-23{fill:#f5d3fa;}.cls-24{fill:#d99cfa;}.cls-25{fill:#d2fdfe;}.cls-26{fill:url(#Naamloos_verloop_7-2);}.cls-27{fill:url(#Naamloos_verloop_7-3);}.cls-28,.cls-30,.cls-33,.cls-46{mix-blend-mode:multiply;}.cls-28{fill:url(#Naamloos_verloop_11-2);}.cls-29{fill:url(#Naamloos_verloop_11-3);}.cls-30{fill:#547e89;opacity:0.2;}.cls-31{fill:url(#Naamloos_verloop_7-4);}.cls-32{fill:url(#Naamloos_verloop_7-5);}.cls-33{fill:url(#Naamloos_verloop_11-4);}.cls-34{fill:url(#Naamloos_verloop_11-5);}.cls-35{fill:#9fb6bc;}.cls-36{fill:url(#Naamloos_verloop_2);}.cls-37{fill:url(#Naamloos_verloop_7-6);}.cls-38{fill:url(#Naamloos_verloop_7-7);}.cls-39{fill:url(#Naamloos_verloop_2-2);}.cls-40{fill:url(#Naamloos_verloop_7-8);}.cls-41{fill:#c3e5f5;}.cls-42{fill:#bf9bc8;}.cls-43{fill:#ad94c6;}.cls-44{fill:#6b777c;}.cls-45{fill:#919fa3;}.cls-46{fill:#323738;opacity:0.15;}.cls-47{fill:url(#Naamloos_verloop_2-3);}.cls-48{fill:url(#Naamloos_verloop_2-4);}</style><linearGradient id="Naamloos_verloop_11" x1="1311.77" y1="-28.65" x2="1494.28" y2="-151.6" gradientTransform="matrix(0.85, 0.52, -0.52, 0.85, -483.81, -478.12)" gradientUnits="userSpaceOnUse"><stop offset="0" stop-color="#dde4fb"/><stop offset="1" stop-color="#f9e5fc"/></linearGradient><linearGradient id="Naamloos_verloop_7" x1="1323.59" y1="-36.61" x2="1482.42" y2="-143.61" gradientTransform="matrix(0.85, 0.52, -0.52, 0.85, -483.81, -478.12)" gradientUnits="userSpaceOnUse"><stop offset="0" stop-color="#c6d2f9"/><stop offset="1" stop-color="#f5d3fa"/></linearGradient><linearGradient id="Naamloos_verloop_7-2" x1="422.93" y1="718.62" x2="422.93" y2="842.45" gradientTransform="matrix(1, 0, 0, 1, 0, 0)" xlink:href="#Naamloos_verloop_7"/><linearGradient id="Naamloos_verloop_7-3" x1="339.4" y1="818.55" x2="507.31" y2="705.43" gradientTransform="matrix(1, 0, 0, 1, 0, 0)" xlink:href="#Naamloos_verloop_7"/><linearGradient id="Naamloos_verloop_11-2" x1="539.12" y1="733" x2="306.73" y2="733" gradientTransform="matrix(1, 0, 0, 1, 0, 0)" xlink:href="#Naamloos_verloop_11"/><linearGradient id="Naamloos_verloop_11-3" x1="306.68" y1="761.39" x2="539.18" y2="761.39" gradientTransform="matrix(1, 0, 0, 1, 0, 0)" xlink:href="#Naamloos_verloop_11"/><linearGradient id="Naamloos_verloop_7-4" x1="53.27" y1="531.94" x2="169.12" y2="488.22" gradientTransform="translate(121.77 257.44) rotate(-12.63)" xlink:href="#Naamloos_verloop_7"/><linearGradient id="Naamloos_verloop_7-5" x1="16.93" y1="552.15" x2="184.84" y2="439.03" gradientTransform="translate(121.77 257.44) rotate(-12.63)" xlink:href="#Naamloos_verloop_7"/><linearGradient id="Naamloos_verloop_11-4" x1="216.65" y1="466.6" x2="-15.74" y2="466.6" gradientTransform="translate(121.77 257.44) rotate(-12.63)" xlink:href="#Naamloos_verloop_11"/><linearGradient id="Naamloos_verloop_11-5" x1="-15.79" y1="494.99" x2="216.71" y2="494.99" gradientTransform="translate(121.77 257.44) rotate(-12.63)" xlink:href="#Naamloos_verloop_11"/><linearGradient id="Naamloos_verloop_2" x1="1694.78" y1="613.06" x2="1934.51" y2="613.06" gradientTransform="translate(-919.93 -537.49) scale(0.67 1)" gradientUnits="userSpaceOnUse"><stop offset="0" stop-color="#f5d3fa"/><stop offset="1" stop-color="#c6d2f9"/></linearGradient><linearGradient id="Naamloos_verloop_7-6" x1="698.45" y1="624.15" x2="767.22" y2="624.15" gradientTransform="translate(-299.1 -781.19) rotate(19.1)" xlink:href="#Naamloos_verloop_7"/><linearGradient id="Naamloos_verloop_7-7" x1="-4935.76" y1="-582.81" x2="-4696.04" y2="-582.81" gradientTransform="matrix(0.67, 0, 0, -1, 3684.86, -411.27)" xlink:href="#Naamloos_verloop_7"/><linearGradient id="Naamloos_verloop_2-2" x1="-3764.63" y1="-571.72" x2="-3695.83" y2="-571.72" gradientTransform="matrix(-0.65, -0.76, -0.76, 0.65, -2364.26, -2179.39)" xlink:href="#Naamloos_verloop_2"/><linearGradient id="Naamloos_verloop_7-8" x1="1253.21" y1="66.72" x2="1284.03" y2="66.72" gradientTransform="translate(-625.64 -665.18) rotate(34.1)" xlink:href="#Naamloos_verloop_7"/><linearGradient id="Naamloos_verloop_2-3" x1="1243.25" y1="652.39" x2="1268.64" y2="652.39" gradientTransform="translate(-625.64 -665.18) rotate(34.1)" xlink:href="#Naamloos_verloop_2"/><linearGradient id="Naamloos_verloop_2-4" x1="-2899.57" y1="652.39" x2="-2874.18" y2="652.39" gradientTransform="matrix(-0.83, -0.56, -0.56, 0.83, -1955.13, -1565.3)" xlink:href="#Naamloos_verloop_2"/></defs><g class="cls-1"><g id="Layer_2" data-name="Layer 2"><g id="Laag_1" data-name="Laag 1"><polygon class="cls-2" points="548.05 359.89 559.83 358.34 576.38 362.83 573.98 389.11 531.07 409.32 521.81 403.02 548.05 359.89"/><polygon class="cls-3" points="527.85 428.98 531.07 409.32 573.98 389.11 581.61 401.96 551.35 437.21 527.85 428.98"/><polygon class="cls-4" points="508 438.49 507.57 415.63 521.81 403.02 531.07 409.32 527.85 428.98 508 438.49"/><polygon class="cls-5" points="527.85 428.98 551.35 437.21 508 438.49 527.85 428.98"/><polygon class="cls-6" points="579.73 398.79 605.51 395.71 588.48 419.93 551.35 437.21 579.73 398.79"/><polygon class="cls-4" points="579.73 398.79 573.98 389.11 576.38 362.83 585.7 364.04 605.51 395.71 579.73 398.79"/><polygon class="cls-7" points="507.57 415.63 511.82 388.67 538.11 359.63 548.05 359.89 521.81 403.02 507.57 415.63"/><polygon class="cls-8" points="426.17 750.29 471.95 593.78 463.63 561.32 460.3 521.36 468.49 488.82 354.57 657.88 360.4 701.17 426.17 750.29"/><polygon class="cls-9" points="731.68 416.47 676.74 446.44 610.97 529.68 471.95 593.78 426.17 750.29 508.58 761.94 605.98 750.29 690.89 750.29 768.31 768.6 740.01 650.11 728.35 552.16 722.52 467.25 731.68 416.47"/><polygon class="cls-10" points="802.44 383.17 731.68 416.47 722.52 467.25 728.35 552.16 740.01 650.11 768.31 768.6 802.44 730.31 847.4 682.86 859.05 644.56 824.09 503.88 802.44 383.17"/><polygon class="cls-11" points="583.13 753.02 566.02 706.17 603.48 625.42 584.75 630.41 526.89 693.68 508.58 761.94 583.13 753.02"/><polygon class="cls-8" points="728.35 552.16 603.48 625.42 566.02 706.17 583.13 753.02 690.89 750.29 768.31 768.6 740.01 650.11 728.35 552.16"/><polygon class="cls-10" points="468.49 488.82 500.25 440.61 566.02 412.3 676.74 446.44 610.97 529.68 471.95 593.78 463.63 561.32 460.3 521.36 468.49 488.82"/><polygon class="cls-11" points="802.44 383.17 768.31 364.02 680.9 364.02 566.02 412.3 676.74 446.44 731.68 416.47 773.14 396.96 802.44 383.17"/><polygon class="cls-2" points="728.35 552.16 715.88 529.52 719.18 506.79 724.64 498.1 744.4 522.08 736.96 545.64 728.35 552.16"/><polygon class="cls-6" points="724.64 498.1 734.06 488.82 745.64 498.1 748.94 513.4 744.4 522.08 724.64 498.1"/><polygon class="cls-4" points="748.94 513.4 754.04 530.07 751.49 541.65 736.96 545.64 744.4 522.08 748.94 513.4"/><polygon class="cls-3" points="745.64 498.1 756.38 518.36 754.04 530.07 748.94 513.4 745.64 498.1"/><polygon class="cls-7" points="751.49 541.65 739.85 548.67 728.35 552.16 736.96 545.64 751.49 541.65"/><circle class="cls-12" cx="761.49" cy="174.08" r="111.67"/><circle class="cls-13" cx="761.49" cy="174.08" r="97.18"/><polygon class="cls-14" points="726.55 161.82 707.84 143.83 682.21 165.38 709.17 157.02 726.55 161.82"/><polygon class="cls-14" points="713.02 172.83 726.55 161.82 709.17 157.02 713.02 172.83"/><polygon class="cls-15" points="713.02 172.83 709.17 157.02 682.21 165.38 706.71 206.45 713.02 172.83"/><polygon class="cls-14" points="713.02 172.83 713.02 172.83 706.71 206.45 731.2 247.51 713.02 172.83"/><polygon class="cls-14" points="731.2 247.51 814.69 227.2 786.11 214.79 731.2 247.51"/><polygon class="cls-14" points="821.54 191.52 788.61 190.58 811.19 199.81 824.13 224.9 821.54 191.52"/><polygon class="cls-15" points="811.19 199.81 786.12 214.79 814.69 227.2 824.13 224.9 811.19 199.81"/><polygon class="cls-16" points="750.45 164.57 750.45 164.57 742.54 198.66 750.54 205.66 797.48 104.12 756.79 137.21 750.45 164.57"/><polygon class="cls-17" points="751 206.06 772.3 211.36 797.48 104.12 750.54 205.66 751 206.06"/><polygon class="cls-18" points="786.11 214.79 786.11 214.79 797.48 104.12 772.3 211.36 786.11 214.79"/><polygon class="cls-19" points="756.79 137.21 756.79 137.21 713.02 172.83 750.45 164.57 756.79 137.21"/><polygon class="cls-20" points="713.02 172.83 731.2 247.51 742.54 198.66 713.02 172.83"/><polygon class="cls-21" points="772.3 211.36 772.3 211.36 731.2 247.51 786.11 214.79 772.3 211.36"/><polygon class="cls-22" points="750.45 164.57 713.02 172.83 742.54 198.66 750.45 164.57"/><polygon class="cls-23" points="742.54 198.66 731.2 247.51 750.55 205.66 742.54 198.66"/><polygon class="cls-24" points="772.3 211.36 751 206.06 750.54 205.66 731.2 247.51 772.3 211.36"/><polygon class="cls-25" points="788.61 190.58 786.12 214.79 811.19 199.81 788.61 190.58"/><path class="cls-26" d="M532.51,761.39c-16-24.92-59-42.77-109.58-42.77s-93.59,17.85-109.58,42.77h-6.53v13.75c-.09,1-.14,2-.14,3.06,0,35.48,52.05,64.25,116.25,64.25,62.34,0,113.22-27.13,116.11-61.19h.14V761.39Z"/><path class="cls-27" d="M539.18,761.39c0,35.48-52,64.24-116.25,64.24s-116.25-28.76-116.25-64.24,52.05-59.58,116.25-59.58S539.18,725.9,539.18,761.39Z"/><polygon class="cls-14" points="385.14 768.27 359.34 764.98 348.45 783.48 367.49 771.15 385.14 768.27"/><polygon class="cls-14" points="379.2 777.85 385.14 768.27 367.49 771.15 379.2 777.85"/><polygon class="cls-15" points="379.2 777.85 367.49 771.15 348.45 783.48 391.5 796.52 379.2 777.85"/><polygon class="cls-14" points="379.2 777.85 379.2 777.85 391.5 796.52 434.56 809.55 379.2 777.85"/><polygon class="cls-14" points="434.56 809.55 496.45 774.13 465.01 776.6 434.56 809.55"/><polygon class="cls-14" points="483.52 754.27 454.37 763.79 478.91 761.54 503.44 770.12 483.52 754.27"/><polygon class="cls-15" points="478.91 761.54 465.01 776.6 496.45 774.13 503.44 770.12 478.91 761.54"/><polygon class="cls-16" points="407.4 762.39 407.4 762.39 418.56 781.77 429.23 782.84 416.32 718.02 398.44 746.84 407.4 762.39"/><polygon class="cls-17" points="429.84 782.9 451.18 779.09 416.32 718.02 429.23 782.84 429.84 782.9"/><polygon class="cls-18" points="465.01 776.6 465.01 776.6 416.32 718.02 451.18 779.09 465.01 776.6"/><polygon class="cls-19" points="398.44 746.84 398.44 746.84 379.2 777.85 407.4 762.39 398.44 746.84"/><polygon class="cls-20" points="379.2 777.85 434.56 809.55 418.56 781.77 379.2 777.85"/><polygon class="cls-21" points="451.18 779.09 451.18 779.09 434.56 809.55 465.01 776.6 451.18 779.09"/><polygon class="cls-22" points="407.4 762.39 379.2 777.85 418.56 781.77 407.4 762.39"/><polygon class="cls-23" points="418.56 781.77 434.56 809.55 429.23 782.84 418.56 781.77"/><polygon class="cls-24" points="451.18 779.09 429.84 782.9 429.23 782.84 434.56 809.55 451.18 779.09"/><polygon class="cls-25" points="454.37 763.79 465.01 776.6 478.91 761.54 454.37 763.79"/><path class="cls-28" d="M316,764.19h0c0-29.77,49-54.91,106.94-54.91s106.94,25.14,106.94,54.91h9.25c-1.78-34.62-53.12-62.38-116.19-62.38s-114.41,27.76-116.2,62.38Z"/><path class="cls-29" d="M422.93,697.14c-64.2,0-116.25,28.76-116.25,64.25s52.05,64.24,116.25,64.24,116.25-28.76,116.25-64.24S487.13,697.14,422.93,697.14Zm0,117.29c-58,0-106.94-25.15-106.94-54.91s49-54.91,106.94-54.91,106.94,25.14,106.94,54.91S480.9,814.43,422.93,814.43Z"/><path class="cls-30" d="M442.61,698.05l6,.66,3.79,12.78s3.86,20.3-4.9,35.35S401,793.07,385.14,799.92s-17.65,6.27-17.65,6.27-15,5.27-16.2,5.8S332,818.21,332,818.21s-7.77-5.56-11.2-9.33-5.78-6.79-5.78-6.79l27.29-30.94,80.65-35.51Z"/><path class="cls-31" d="M435,694.5C413.92,673.68,368,665.68,318.7,676.74s-87.42,37.88-97.58,65.69l-6.37,1.43,3,13.42c.14,1,.31,2,.54,3,7.76,34.62,64.83,51.31,127.48,37.26,60.84-13.63,104.55-51.23,99.92-85.1l.13,0L441.48,693Z"/><path class="cls-32" d="M441.49,693c7.76,34.63-36.74,74.08-99.39,88.12s-119.72-2.64-127.48-37.27,37.75-69.52,100.4-83.56S433.72,658.42,441.49,693Z"/><polygon class="cls-14" points="292.69 733.45 266.79 735.88 260.21 756.32 276.08 740.12 292.69 733.45"/><polygon class="cls-14" points="288.98 744.1 292.69 733.45 276.08 740.12 288.98 744.1"/><polygon class="cls-15" points="288.98 744.1 276.08 740.12 260.21 756.32 305.07 759.62 288.98 744.1"/><polygon class="cls-14" points="288.98 744.1 288.98 744.1 305.07 759.62 349.93 762.92 288.98 744.1"/><polygon class="cls-14" points="349.93 762.92 402.58 714.82 372.45 724.11 349.93 762.92"/><polygon class="cls-14" points="385.62 698.27 359.26 713.93 382.71 706.38 408.53 709.38 385.62 698.27"/><polygon class="cls-15" points="382.71 706.38 372.45 724.11 402.58 714.82 408.53 709.38 382.71 706.38"/><polygon class="cls-16" points="313.12 722.85 313.12 722.85 328.25 739.32 338.89 738.02 312.12 677.6 300.97 709.63 313.12 722.85"/><polygon class="cls-17" points="339.5 737.95 359.49 729.56 312.12 677.6 338.9 738.02 339.5 737.95"/><polygon class="cls-18" points="372.45 724.11 372.45 724.11 312.12 677.6 359.49 729.56 372.45 724.11"/><polygon class="cls-19" points="300.97 709.63 300.97 709.63 288.98 744.1 313.12 722.85 300.97 709.63"/><polygon class="cls-20" points="288.98 744.1 349.93 762.92 328.25 739.32 288.98 744.1"/><polygon class="cls-21" points="359.49 729.56 359.49 729.56 349.93 762.92 372.45 724.11 359.49 729.56"/><polygon class="cls-22" points="313.12 722.85 288.98 744.1 328.25 739.32 313.12 722.85"/><polygon class="cls-23" points="328.25 739.32 349.93 762.92 338.9 738.02 328.25 739.32"/><polygon class="cls-24" points="359.49 729.56 339.5 737.95 338.89 738.02 349.93 762.92 359.49 729.56"/><polygon class="cls-25" points="359.26 713.93 372.45 724.11 382.71 706.38 359.26 713.93"/><path class="cls-33" d="M224.31,744.59h0c-6.51-29,35.78-64.29,92.35-77S426.51,668.77,433,697.81h0l9-2c-9.32-33.39-65.48-49.25-127-35.46s-105.56,52.11-99.74,86.28Z"/><path class="cls-34" d="M314,655.77c-62.65,14.05-107.14,53.5-99.38,88.12s64.84,51.31,127.48,37.27S449.25,727.67,441.48,693,376.65,641.73,314,655.77Zm25.65,114.45C283.09,782.9,229.8,769.08,223.29,740s35.78-64.29,92.34-77S425.49,664.21,432,693.25,396.22,757.54,339.65,770.22Z"/><rect class="cls-35" x="184.77" y="161.65" width="42.98" height="414.6" transform="translate(242.31 -52.2) rotate(34.1)"/><rect class="cls-36" x="220.83" y="45.6" width="161.36" height="59.93" transform="translate(41.33 -94.5) rotate(19.1)"/><polygon class="cls-37" points="235.08 20.85 178.64 33.02 143.23 75.94 215.47 77.48 235.08 20.85"/><rect class="cls-38" x="362.58" y="141.57" width="161.36" height="59.93" transform="translate(603.82 618.88) rotate(-130.9)"/><polygon class="cls-39" points="518.73 212.9 528.42 269.84 501.72 318.65 473.43 252.14 518.73 212.9"/><polygon class="cls-40" points="387.56 73.65 407.04 72.37 413.08 90.93 367.78 130.17 387.56 73.65"/><polygon class="cls-4" points="418.79 55.03 407.04 72.37 387.56 73.65 400.42 54.98 418.79 55.03"/><polygon class="cls-41" points="418.79 55.03 407.04 72.37 413.08 90.93 425.63 72.13 418.79 55.03"/><polygon class="cls-41" points="400.42 54.98 231.51 0 235.08 20.85 387.56 73.65 400.42 54.98"/><polygon class="cls-4" points="231.51 0 160.43 14.72 178.64 33.02 235.08 20.85 231.51 0"/><polygon class="cls-7" points="160.43 14.72 91.7 98.59 143.23 75.94 178.64 33.02 160.43 14.72"/><polygon class="cls-42" points="91.7 98.59 143.23 75.94 215.47 77.48 193.6 98.47 91.7 98.59"/><polygon class="cls-7" points="367.88 130.24 351.94 153.98 193.6 98.47 215.47 77.48 367.88 130.24"/><polygon class="cls-2" points="425.63 72.13 539.46 208.51 518.73 212.9 413.08 90.93 425.63 72.13"/><polygon class="cls-41" points="539.46 208.51 552.17 279.95 528.42 269.84 518.73 212.9 539.46 208.51"/><polygon class="cls-4" points="552.17 279.95 499.82 374.91 501.72 318.65 528.42 269.84 552.17 279.95"/><polygon class="cls-7" points="499.82 374.91 501.72 318.65 473.46 252.15 462.1 280.25 499.82 374.91"/><polygon class="cls-43" points="367.93 130.15 351.98 154.01 462.1 280.25 473.46 252.15 367.93 130.15"/><polygon class="cls-44" points="361.68 139.56 309.78 139.21 299.33 186.85 316.33 206.37 361.68 139.56"/><polygon class="cls-45" points="361.52 139.45 381.17 187.45 340.77 214.91 316.33 206.37 361.52 139.45"/><polygon class="cls-46" points="301.73 189.61 316.33 206.37 337.32 213.71 331.63 222.12 308.61 217.61 296.31 197.61 301.73 189.61"/><polygon class="cls-47" points="88.36 543.09 29.89 629.46 24.93 591.49 61.14 538 88.36 543.09"/><polygon class="cls-48" points="88.36 543.09 29.89 629.46 66.98 619.96 103.19 566.47 88.36 543.09"/><polygon class="cls-4" points="88.36 543.09 104.1 519.84 55.09 511.95 61.14 538 88.36 543.09"/><polygon class="cls-41" points="24.93 591.49 0 593.32 55.09 511.95 61.14 538 24.93 591.49"/><polygon class="cls-7" points="0 593.32 9.38 659.75 29.89 629.46 24.93 591.49 0 593.32"/><polygon class="cls-41" points="88.36 543.09 104.1 519.84 129.63 562.41 103.19 566.47 88.36 543.09"/><polygon class="cls-4" points="66.98 619.96 74.54 643.79 129.63 562.41 103.19 566.47 66.98 619.96"/><polygon class="cls-43" points="74.54 643.79 9.38 659.75 29.89 629.46 66.98 619.96 74.54 643.79"/><polygon class="cls-15" points="578.52 341.41 536.73 346.26 559.43 310.85 601.22 305.99 578.52 341.41"/><rect class="cls-15" x="613.66" y="283.94" width="17.59" height="17.59" transform="translate(81.93 -132.68) rotate(13.02)"/><rect class="cls-15" x="647.36" y="266.57" width="13.06" height="13.06" transform="translate(78.32 -140.27) rotate(13.02)"/><polygon class="cls-15" points="442.8 392.31 484.74 389.04 460.72 423.57 418.78 426.85 442.8 392.31"/><rect class="cls-15" x="388.26" y="430.5" width="17.59" height="17.59" transform="translate(665.26 967.23) rotate(-164.82)"/><rect class="cls-15" x="358.37" y="451.2" width="13.06" height="13.06" transform="translate(597.25 995.03) rotate(-164.82)"/><polygon class="cls-15" points="466.33 612.98 501.72 600.34 503.44 579.26 478.91 581.89 466.33 600.79 466.33 612.98"/><polygon class="cls-14" points="503.44 579.26 495.45 560.29 473.85 556.74 467.24 575.39 478.91 581.89 503.44 579.26"/><polygon class="cls-6" points="466.33 612.98 454.73 584.14 459.5 583.19 466.33 600.79 466.33 612.98"/><polygon class="cls-23" points="467.24 575.39 459.5 583.19 466.33 600.79 478.91 581.89 467.24 575.39"/><polygon class="cls-2" points="473.85 556.74 454.73 584.14 459.5 583.19 467.24 575.39 473.85 556.74"/></g></g></g></svg>