<svg xmlns="http://www.w3.org/2000/svg" xmlns:xlink="http://www.w3.org/1999/xlink" viewBox="0 0 780.7 578"><defs><style>.cls-1{isolation:isolate;}.cls-2{fill:#9fb6bc;}.cls-3{fill:#4a585b;}.cls-4{fill:#9691c6;}.cls-5{fill:url(#Naamloos_verloop_7);}.cls-6{fill:#c3e5f5;}.cls-7{fill:#eacfe5;}.cls-8{fill:#a7aed8;}.cls-9{fill:#ad94c6;}.cls-10{fill:#919fa3;}.cls-11{fill:#6b777c;}.cls-12{fill:#323738;mix-blend-mode:multiply;opacity:0.15;}</style><linearGradient id="Naamloos_verloop_7" x1="34.91" y1="289" x2="543.09" y2="289" gradientUnits="userSpaceOnUse"><stop offset="0" stop-color="#c6d2f9"/><stop offset="1" stop-color="#f5d3fa"/></linearGradient></defs><g class="cls-1"><g id="Layer_2" data-name="Layer 2"><g id="Laag_1" data-name="Laag 1"><rect class="cls-2" x="599.57" y="169.29" width="27.06" height="239.42"/><rect class="cls-3" x="599.57" y="314.06" width="27.06" height="94.65"/><polygon class="cls-4" points="408.71 0 169.29 0 0 169.29 0 408.71 169.29 578 408.71 578 578 408.71 578 169.29 408.71 0"/><polygon class="cls-5" points="394.25 34.91 183.75 34.91 34.91 183.75 34.91 394.25 183.75 543.09 394.25 543.09 543.09 394.25 543.09 183.75 394.25 34.91"/><polygon class="cls-6" points="169.29 0 183.75 34.91 394.25 34.91 408.71 0 169.29 0"/><polygon class="cls-7" points="543.09 183.75 578 169.29 408.71 0 394.25 34.91 543.09 183.75"/><polygon class="cls-8" points="543.09 394.25 578 408.71 578 169.29 543.09 183.75 543.09 394.25"/><polygon class="cls-9" points="394.25 543.09 408.71 578 578 408.71 543.09 394.25 394.25 543.09"/><polygon class="cls-8" points="183.75 543.09 169.29 578 0 408.71 34.91 394.25 183.75 543.09"/><polygon class="cls-8" points="169.29 0 183.75 34.91 34.91 183.75 0 169.29 169.29 0"/><polygon class="cls-7" points="34.91 394.25 0 408.71 0 169.29 34.91 183.75 34.91 394.25"/><polygon class="cls-10" points="471.2 289 471.2 228.6 503.09 204.3 637.4 204.3 637.4 289 471.2 289"/><polygon class="cls-11" points="471.2 289 471.2 349.4 503.09 373.7 637.4 373.7 637.4 289 471.2 289"/><polygon class="cls-11" points="506.75 226.69 499.45 226.69 494.29 231.85 494.29 239.15 499.45 244.31 506.75 244.31 511.91 239.15 511.91 231.85 506.75 226.69"/><polygon class="cls-2" points="506.75 333.69 499.45 333.69 494.29 338.85 494.29 346.15 499.45 351.31 506.75 351.31 511.91 346.15 511.91 338.85 506.75 333.69"/><polygon class="cls-11" points="616.75 226.69 609.45 226.69 604.29 231.85 604.29 239.15 609.45 244.31 616.75 244.31 621.91 239.15 621.91 231.85 616.75 226.69"/><polygon class="cls-2" points="616.75 333.69 609.45 333.69 604.29 338.85 604.29 346.15 609.45 351.31 616.75 351.31 621.91 346.15 621.91 338.85 616.75 333.69"/><polygon class="cls-10" points="748.81 112.55 705.1 112.55 664.5 112.55 620.79 112.55 588.9 136.85 588.9 197.25 664.5 197.25 705.1 197.25 780.7 197.25 780.7 136.85 748.81 112.55"/><rect class="cls-10" x="648" y="197.25" width="132.7" height="183.5"/><polygon class="cls-11" points="648 347.74 648 380.75 588.9 380.75 588.9 441.15 620.79 465.45 664.5 465.45 705.1 465.45 748.81 465.45 780.7 441.15 780.7 380.75 780.7 300 648 347.74"/><polygon class="cls-3" points="372.27 209.06 291.77 175.58 211.16 208.83 177.68 289.33 210.93 369.94 291.43 403.42 372.04 370.17 405.52 289.67 372.27 209.06"/><polygon class="cls-11" points="365.68 215.63 291.75 184.88 217.73 215.42 186.98 289.35 217.52 363.37 291.45 394.12 365.47 363.58 396.22 289.65 365.68 215.63"/><polygon class="cls-10" points="291.35 399 291.35 483 255.35 457.8 241.93 373.52 291.5 394.12 291.35 399"/><polygon class="cls-11" points="291.34 399 291.34 483 327.34 457.8 340.75 373.63 291.5 394.12 291.34 399"/><polygon class="cls-3" points="348.26 233 291.72 209.49 235.1 232.84 211.59 289.38 234.94 346 291.48 369.51 348.1 346.16 371.62 289.62 348.26 233"/><path class="cls-2" d="M170.07,163.84l-5,5V183l233.41,233.4h14.14l5-5V397.25L184.21,163.84Z"/><path class="cls-2" d="M412.62,163.84l5,5V183l-233.4,233.4H170.07l-5-5V397.25L398.48,163.84Z"/><polygon class="cls-10" points="343.26 237.99 291.71 216.55 240.09 237.84 218.65 289.39 239.94 341.01 291.49 362.45 343.11 341.16 364.55 289.61 343.26 237.99"/><polygon class="cls-11" points="291.6 180 291.6 96 255.6 121.2 242.2 205.32 291.75 184.88 291.6 180"/><polygon class="cls-10" points="291.6 180 291.6 96 327.6 121.2 341 205.37 291.75 184.88 291.6 180"/><polygon class="cls-12" points="234.5 327.82 227.72 334.6 231.11 348.98 247.08 353.51 253.81 346.78 239.94 341.01 234.5 327.82"/><polygon class="cls-12" points="348.53 328.14 355.3 334.92 351.92 349.3 335.94 353.83 329.07 346.95 343.11 341.16 348.53 328.14"/><polygon class="cls-12" points="232.32 250.23 237.75 235.57 251.19 230.83 252.91 232.55 240.09 237.84 234.17 252.07 232.32 250.23"/><polygon class="cls-12" points="350.75 249.84 345.31 235.14 331.91 230.42 329.89 232.43 343.26 237.99 348.9 251.69 350.75 249.84"/></g></g></g></svg>