<svg xmlns="http://www.w3.org/2000/svg" width="118.248" height="75.252" viewBox="0 0 118.248 75.252">
  <defs>
    <style>
      .cls-1 {
        fill: #afd5f5;
      }

      .cls-2 {
        fill: #c2edfc;
      }

      .cls-3 {
        fill: #a7b2f9;
      }

      .cls-4 {
        fill: #c6d2f9;
      }

      .cls-5 {
        fill: #a8b2f5;
      }

      .cls-6 {
        fill: #9f97f7;
      }

      .cls-7 {
        fill: #bb98ef;
      }

      .cls-8 {
        fill: #a296d1;
      }

      .cls-9 {
        fill: #d99cee;
      }

      .cls-10 {
        fill: #f5d3fa;
      }

      .cls-11 {
        fill: #d99cfa;
      }

      .cls-12 {
        fill: #d2fdfe;
      }
    </style>
  </defs>
  <g id="Group_13143" data-name="Group 13143" transform="translate(-0.406)">
    <path id="Path_30017" data-name="Path 30017" class="cls-1" d="M46.492,31.853,37,29.757,33,41.484l7-7.818Z"/>
    <path id="Path_30018" data-name="Path 30018" class="cls-1" d="M44.314,37.927l2.177-6.075L40,33.666Z"/>
    <path id="Path_30019" data-name="Path 30019" class="cls-2" d="M44.314,37.927,40,33.666l-7,7.818,15.829,8.258Z"/>
    <path id="Path_30020" data-name="Path 30020" class="cls-1" d="M44.314,37.927l4.515,11.815L64.659,58Z"/>
    <path id="Path_30021" data-name="Path 30021" class="cls-1" d="M64.659,58,87.43,35.568,75.866,37.135Z"/>
    <path id="Path_30022" data-name="Path 30022" class="cls-1" d="M82.683,22.978,71.958,29l9.03-1.426L90,33.014Z"/>
    <path id="Path_30023" data-name="Path 30023" class="cls-2" d="M80.988,27.574l-5.122,9.561L87.43,35.568,90,33.014Z"/>
    <path id="Path_30024" data-name="Path 30024" class="cls-3" d="M54.683,28.119l4.1,12.29,3.926.669L57.966,0,51.381,18.259Z"/>
    <path id="Path_30025" data-name="Path 30025" class="cls-4" d="M62.928,41.114,70.78,38.7,57.966,0l4.747,41.079Z"/>
    <path id="Path_30026" data-name="Path 30026" class="cls-5" d="M75.866,37.135,57.966,0,70.78,38.7Z"/>
    <path id="Path_30027" data-name="Path 30027" class="cls-6" d="M51.381,18.259,44.314,37.927,54.683,28.12Z"/>
    <path id="Path_30028" data-name="Path 30028" class="cls-7" d="M44.314,37.927,64.659,58,58.787,40.41Z"/>
    <path id="Path_30029" data-name="Path 30029" class="cls-8" d="M70.78,38.7,64.659,58,75.866,37.135Z"/>
    <path id="Path_30030" data-name="Path 30030" class="cls-9" d="M54.683,28.119,44.314,37.927,58.787,40.41Z"/>
    <path id="Path_30031" data-name="Path 30031" class="cls-10" d="M58.787,40.41,64.659,58,62.714,41.079Z"/>
    <path id="Path_30032" data-name="Path 30032" class="cls-11" d="M70.78,38.7l-7.852,2.412-.214-.035L64.659,58Z"/>
    <path id="Path_30033" data-name="Path 30033" class="cls-12" d="M71.958,29l3.908,8.135,5.122-9.561Z"/>
    <path id="Path_30034" data-name="Path 30034" d="M8.064,72.494a3.608,3.608,0,0,1-2.464.994A3.142,3.142,0,0,1,2.226,70.17a3.213,3.213,0,0,1,3.374-3.4,3.367,3.367,0,0,1,2.366.924L9.2,66.5A5.056,5.056,0,0,0,5.6,65,4.933,4.933,0,0,0,.406,70.17,4.817,4.817,0,0,0,5.6,75.224a5.165,5.165,0,0,0,3.724-1.456Zm11,2.38-2.968-3.346a2.907,2.907,0,0,0,2.478-3.08A3.248,3.248,0,0,0,15.042,65.2c-1.554,0-3.108-.014-4.662-.014V75h1.848V71.724h1.778L16.862,75h2.2Zm-4.018-7.952a1.572,1.572,0,1,1,0,3.136H12.228V66.922ZM21.451,65.2h-2.2v.084l3.766,5.67V75h1.848V70.954l3.906-5.67V65.2H26.547l-2.6,4.046Zm15.655,1.61a3.962,3.962,0,0,0-3.85-1.946c-1.806.014-3.794.84-3.794,2.856,0,2.2,1.848,2.73,3.85,2.968,1.3.14,2.268.518,2.268,1.442,0,1.064-1.092,1.47-2.254,1.47a2.793,2.793,0,0,1-2.758-1.554l-1.54.8c.728,1.792,2.268,2.408,4.27,2.408,2.184,0,4.116-.938,4.116-3.122,0-2.338-1.9-2.87-3.948-3.122-1.176-.14-2.184-.378-2.184-1.232,0-.728.658-1.3,2.03-1.3a2.809,2.809,0,0,1,2.324,1.092ZM41.378,75h1.848V66.88h3.108V65.2H38.27v1.68h3.108Zm6.079-9.8V75h6.888V73.292h-5.04V65.2Zm8.021,8.918a1.008,1.008,0,0,0,2.016,0A1.008,1.008,0,0,0,55.479,74.118ZM60.886,75V71.374H65.8V69.666H60.886V66.992H66.08V65.214H59.038V75Zm8.449,0V65.2H67.5V75Zm8.174-3.724-4.8-6.076h-1.5V75h1.848V68.392l5.152,6.622V75h1.148V65.186H77.509ZM88.833,75h2.016l-4.4-9.8H84.437l-4.4,9.8h2l.84-1.848h5.124Zm-1.568-3.57h-3.64l1.82-4.172Zm10.861-.154-4.8-6.076h-1.5V75h1.848V68.392l5.152,6.622V75h1.148V65.186H98.126Zm10.918,1.218a3.608,3.608,0,0,1-2.464.994,3.142,3.142,0,0,1-3.374-3.318,3.213,3.213,0,0,1,3.374-3.4,3.367,3.367,0,0,1,2.366.924l1.232-1.19a5.056,5.056,0,0,0-3.6-1.5,4.933,4.933,0,0,0-5.194,5.166,4.817,4.817,0,0,0,5.194,5.054,5.165,5.165,0,0,0,3.724-1.456Zm9.61.686h-5.5V70.968h5.306V69.246h-5.306V66.992h5.5V65.2h-7.336V75h7.336Z"/>
  </g>
</svg>
