<svg xmlns="http://www.w3.org/2000/svg" xmlns:xlink="http://www.w3.org/1999/xlink" width="29.43" height="29.43" viewBox="0 0 29.43 29.43" style="border-radius: 19px">
  <defs>
    <style>
      .cls-1 {
        fill: #fff;
      }

      .cls-2 {
        clip-path: url(#clip-path);
      }

      .cls-3 {
        fill: #b07efa;
      }
    </style>
    <clipPath id="clip-path">
      <rect id="Rectangle_5442" data-name="Rectangle 5442" class="cls-1" width="29.43" height="29.43" transform="translate(0.567 0.647)"/>
    </clipPath>
  </defs>
  <g id="Group_13147" data-name="Group 13147" class="cls-2" transform="translate(-0.566 -0.646)">
    <path id="Path_30050" data-name="Path 30050" class="cls-3" d="M.567.647H30v29.43H.567ZM5.541,7.6a4.744,4.744,0,0,0,.346.611c.472.579.944,1.159,1.447,1.711A1.74,1.74,0,0,1,7.809,11.2c-.025,2.694-.033,5.389,0,8.083a2.083,2.083,0,0,1-.585,1.575c-.581.624-1.088,1.318-1.613,1.993a3.126,3.126,0,0,0-.268.561h6.13a2.64,2.64,0,0,0-.234-.491c-.622-.787-1.277-1.548-1.874-2.353a1.8,1.8,0,0,1-.373-.969c-.032-2.288-.017-4.577-.018-6.865q0-.232,0-.463c.656,1.178,1.217,2.372,1.766,3.571,1.121,2.447,2.232,4.9,3.364,7.34a.527.527,0,0,0,.417.234.746.746,0,0,0,.411-.27c.064-.068.038-.213.078-.313q1.313-3.324,2.633-6.645c.521-1.308,1.05-2.613,1.575-3.919.068,2.344-.028,4.673.1,6.99a3.6,3.6,0,0,1-1.554,3.595c-.146.1-.2.325-.345.561h8.059a3.032,3.032,0,0,0-.3-.478c-.4-.418-.8-.841-1.226-1.224a.964.964,0,0,1-.345-.807c.013-3.064.1-6.131-.031-9.189a3.615,3.615,0,0,1,1.542-3.536c.149-.1.217-.32.385-.582-1.637,0-3.118.056-4.592-.022a1.241,1.241,0,0,0-1.46.963c-.786,2.147-1.662,4.261-2.512,6.385-.32.8-.667,1.591-1.025,2.441-1.457-3.211-2.882-6.357-4.324-9.5a.566.566,0,0,0-.425-.259C9.347,7.6,7.518,7.6,5.541,7.6Z"/>
    <path id="Path_30051" data-name="Path 30051" class="cls-1" d="M5.541,7.6c1.977,0,3.807-.006,5.636.011a.567.567,0,0,1,.425.259c1.442,3.139,2.866,6.285,4.324,9.5.358-.85.7-1.641,1.025-2.441.85-2.123,1.726-4.238,2.512-6.385a1.241,1.241,0,0,1,1.46-.963c1.474.078,2.955.022,4.592.022-.168.262-.236.482-.385.582a3.615,3.615,0,0,0-1.542,3.536c.128,3.058.043,6.125.031,9.189a.964.964,0,0,0,.345.807c.431.383.828.806,1.226,1.224a3.031,3.031,0,0,1,.3.478h-8.06c.14-.236.2-.464.345-.561a3.6,3.6,0,0,0,1.554-3.595c-.13-2.317-.034-4.646-.1-6.99-.525,1.306-1.054,2.611-1.575,3.919q-1.322,3.32-2.634,6.644c-.04.1-.014.245-.078.313a.746.746,0,0,1-.411.27.527.527,0,0,1-.417-.234c-1.132-2.442-2.243-4.893-3.364-7.34-.549-1.2-1.11-2.393-1.766-3.571v.463c0,2.288-.014,4.577.018,6.865a1.8,1.8,0,0,0,.373.969c.6.8,1.252,1.566,1.874,2.353a2.636,2.636,0,0,1,.234.49H5.344a3.126,3.126,0,0,1,.268-.561c.525-.675,1.031-1.369,1.613-1.993a2.083,2.083,0,0,0,.585-1.575c-.033-2.694-.025-5.389,0-8.083a1.74,1.74,0,0,0-.476-1.279c-.5-.552-.975-1.133-1.447-1.711A4.743,4.743,0,0,1,5.541,7.6Z"/>
  </g>
</svg>
