<svg xmlns="http://www.w3.org/2000/svg" xmlns:xlink="http://www.w3.org/1999/xlink" viewBox="0 0 584.9 470.16"><defs><style>.cls-1{fill:#c4cfeb;}.cls-2{fill:#a8afd9;}.cls-3{fill:#c59cc9;}.cls-4{fill:#b0d4f2;}.cls-5{fill:#9792c7;}.cls-6{fill:#ebd1e6;}.cls-7{fill:#ae96c7;}.cls-8{fill:#9893c8;}.cls-9{fill:#c5e6f6;}.cls-10{fill:#ecd3e8;}.cls-11{fill:#af97c7;}.cls-12{fill:#d6edf3;}.cls-13{fill:#8eabc2;}.cls-14{fill:#c7d0eb;}.cls-15,.cls-22{fill:#c59eca;}.cls-15{stroke:#c59eca;stroke-miterlimit:10;}.cls-16{fill:#a296c8;}.cls-17{fill:#c3e5f4;}.cls-18{fill:url(#Naamloos_verloop_21);}.cls-19{fill:none;}.cls-20{fill:url(#Naamloos_verloop_21-2);}.cls-21{fill:url(#Naamloos_verloop_21-3);}.cls-23{fill:url(#Naamloos_verloop_38);}.cls-24{fill:url(#Naamloos_verloop_38-2);}.cls-25{fill:url(#Naamloos_verloop_38-3);}.cls-26{fill:url(#Naamloos_verloop_241);}</style><linearGradient id="Naamloos_verloop_21" x1="19.36" y1="233.48" x2="112.68" y2="233.48" gradientTransform="translate(262.38 285.29) rotate(-39.5)" gradientUnits="userSpaceOnUse"><stop offset="0.17" stop-color="#af97c7"/><stop offset="0.34" stop-color="#c5e6f6"/><stop offset="0.63" stop-color="#b1a1ce"/><stop offset="0.88" stop-color="#c5e6f6"/></linearGradient><linearGradient id="Naamloos_verloop_21-2" x1="-211.76" y1="232.22" x2="-118.34" y2="232.22" gradientTransform="matrix(0.81, -0.59, 0.59, 0.81, 248.01, 138.58)" xlink:href="#Naamloos_verloop_21"/><linearGradient id="Naamloos_verloop_21-3" x1="55.8" y1="428" x2="149.2" y2="428" gradientTransform="matrix(1, 0, 0, 1, 0, 0)" xlink:href="#Naamloos_verloop_21"/><linearGradient id="Naamloos_verloop_38" x1="236.8" y1="254.28" x2="535.17" y2="320.69" gradientUnits="userSpaceOnUse"><stop offset="0.19" stop-color="#9893c8"/><stop offset="0.21" stop-color="#9e9bcd"/><stop offset="0.32" stop-color="#b4b8dd"/><stop offset="0.42" stop-color="#c2cae7"/><stop offset="0.49" stop-color="#c7d0eb"/><stop offset="0.52" stop-color="#c6daf0"/><stop offset="0.57" stop-color="#c5e3f5"/><stop offset="0.65" stop-color="#c5e6f6"/><stop offset="0.84" stop-color="#c7d0eb"/></linearGradient><linearGradient id="Naamloos_verloop_38-2" x1="232.76" y1="272.45" x2="531.13" y2="338.86" xlink:href="#Naamloos_verloop_38"/><linearGradient id="Naamloos_verloop_38-3" x1="230.22" y1="283.86" x2="528.59" y2="350.27" xlink:href="#Naamloos_verloop_38"/><linearGradient id="Naamloos_verloop_241" x1="167.05" y1="296.39" x2="401.91" y2="431.99" gradientUnits="userSpaceOnUse"><stop offset="0.06" stop-color="#9893c8"/><stop offset="0.25" stop-color="#b1b9dc"/><stop offset="0.36" stop-color="#becce5"/><stop offset="0.49" stop-color="#c8dbec"/><stop offset="0.6" stop-color="#cce0ee"/><stop offset="0.74" stop-color="#d1e7f1"/><stop offset="0.81" stop-color="#d6edf3"/></linearGradient></defs><g id="Layer_2" data-name="Layer 2"><g id="MIJNWAGEN"><polygon class="cls-1" points="506.69 94.47 467.45 219.81 467.45 219.81 451.71 227.73 464.24 230.06 464.22 230.12 450.54 228.04 452.33 232.02 448.5 228.12 444.44 224 428.32 229.65 418.36 222.28 437.48 166.69 458.34 147.16 439.4 151.91 450.79 117.31 450.87 117.06 453.2 109.97 472.11 52.52 506.69 94.47"/><path class="cls-2" d="M523.7,224.22c1.67-3.14,3.59-6.28,4.42-9.58a4.42,4.42,0,0,1,3.75-3.51l53-129.49L506.69,94.47,467.45,219.81,488.94,209l27,20Z"/><polygon class="cls-3" points="460.77 177.05 448.5 228.12 444.44 224 428.32 229.65 418.36 222.28 437.48 166.69 460.77 177.05"/><polygon class="cls-2" points="437.48 166.69 418.36 222.28 416.66 221.02 400.76 209.25 405.3 200.19 417.38 172.96 417.37 172.95 425.49 155.4 435.23 164.57 437.48 166.69"/><polygon class="cls-1" points="405.3 200.19 400.76 209.25 400.63 209.16 395.23 205.16 394.58 206.54 394.28 205.97 371.36 162.79 392.02 165.72 405.06 199.58 405.3 200.19"/><polygon class="cls-4" points="541.55 0 506.69 94.47 472.11 52.52 541.55 0"/><polygon class="cls-5" points="541.55 0 584.9 81.64 506.69 94.47 541.55 0"/><polygon class="cls-6" points="419.38 88.51 450 97.64 428.76 118.55 419.38 88.51"/><polygon class="cls-6" points="458.34 147.16 460.77 177.05 437.48 166.69 458.34 147.16"/><polygon class="cls-4" points="458.34 147.16 437.48 166.69 435.23 164.57 425.49 155.4 439.4 151.91 458.34 147.16"/><polygon class="cls-4" points="380.06 126.63 392.02 165.72 371.35 162.79 380.06 126.63"/><polygon class="cls-6" points="380.06 126.63 408.15 145.15 392.02 165.72 380.06 126.63"/><polygon class="cls-4" points="419.38 88.51 428.76 118.55 415.05 121.37 419.38 88.51"/><polygon class="cls-7" points="417.37 172.95 417.38 172.96 405.3 200.19 405.06 199.58 392.02 165.72 408.15 145.15 417.37 172.95"/><path class="cls-1" d="M522.09,227.51c.47-1.1,1-2.2,1.61-3.29L516,229l4.27,3.16C520.83,230.61,521.44,229.05,522.09,227.51Z"/><path class="cls-3" d="M513.27,250l-7.83-5.79h0l-19.2,11.63,1.38,20.63.92-.66,21-15C510.58,257.16,511.89,253.58,513.27,250Z"/><path class="cls-8" d="M507.92,274.06a5.09,5.09,0,0,1-.64-2.33l-19.67,4.78L489,297.45l16.36-11.21a5,5,0,0,1,0-1.08A68,68,0,0,1,507.92,274.06Z"/><path class="cls-6" d="M516.61,241.72c.73-1.83,1.42-3.67,2.11-5.51l-13.29,8h0l7.83,5.79C514.37,247.24,515.5,244.47,516.61,241.72Z"/><path class="cls-7" d="M507.32,270.77a67.94,67.94,0,0,1,2.19-10l-21.9,15.71,19.67-4.78A6.27,6.27,0,0,1,507.32,270.77Z"/><polygon class="cls-1" points="433.54 248.1 418.48 270.76 406.04 243.04 423.6 245.78 433.54 248.1"/><polygon class="cls-8" points="441.72 270.88 426.71 278.05 418.48 270.76 433.54 248.1 441.72 270.88"/><polygon class="cls-6" points="433.54 248.1 423.6 245.78 406.04 243.04 414.01 238.49 414.6 238.16 428.06 229.74 431.81 242.35 432.67 245.29 433.54 248.1"/><polygon class="cls-3" points="462.98 255.76 433.54 248.1 431.97 242.96 428.23 230.39 428.58 230.19 446.59 236.06 455.44 238.94 462.98 255.76"/><polygon class="cls-9" points="455.44 238.94 446.59 236.06 428.14 230.04 428.06 229.74 444.44 224 448.5 228.12 452.33 232.02 455.44 238.94"/><polygon class="cls-7" points="433.54 248.1 462.98 255.75 441.72 270.88 433.54 248.1"/><polygon class="cls-3" points="477.85 232.58 462.98 255.76 455.44 238.94 452.33 232.02 450.54 228.04 464.22 230.12 466.13 230.41 477.85 232.58"/><polygon class="cls-7" points="486.23 255.88 471.21 263.05 462.98 255.76 477.85 232.58 486.23 255.88"/><polygon class="cls-4" points="488.94 209 484.75 217.91 480.92 226.07 478.49 231.22 478.2 231.83 477.85 232.58 466.13 230.41 464.24 230.06 450.54 228.04 467.45 219.81 467.45 219.81 468.98 219.04 488.94 209"/><path class="cls-9" d="M519.62,233.8c.2-.55.41-1.09.62-1.63L516,229l-27-20-4.19,8.92-3.83,8.16-3.07,6.51,22,.64,19,.56Z"/><path class="cls-2" d="M519.62,233.8l-.79,0-19-.56-22-.64.19.53,8.19,22.77,19.2-11.63,13.29-8Z"/><polygon class="cls-7" points="479.24 277.12 461.35 288.86 441.72 270.88 479.89 270.86 479.24 277.12"/><polygon class="cls-3" points="485.69 284.62 489.02 297.45 461.35 288.86 479.24 277.12 485.69 284.62"/><polygon class="cls-6" points="479.89 270.86 441.72 270.88 462.98 255.75 479.89 270.86"/><polygon class="cls-4" points="479.89 270.86 471.21 263.05 486.23 255.88 485.69 284.62 479.24 277.12 479.89 270.86"/><polygon class="cls-5" points="485.69 284.62 486.23 255.88 489.02 297.45 485.69 284.62"/><polygon class="cls-2" points="439.25 151.83 427.35 154.91 415.05 121.37 428.76 118.55 439.25 151.83"/><polygon class="cls-7" points="453.22 110.04 439.25 151.83 428.76 118.55 450 97.64 453.22 110.04"/><polygon class="cls-2" points="384.33 229.26 387.51 251.55 370.46 226.27 372.42 226.56 384.33 229.26"/><polygon class="cls-7" points="406.04 243.04 412.26 256.9 387.51 251.55 384.33 229.26 406.04 243.04"/><polygon class="cls-4" points="395.23 205.16 394.58 206.54 393.72 208.37 393.69 208.42 390.96 214.24 390.93 214.31 390.9 214.35 384.33 229.26 373.68 226.85 373.66 226.85 370.46 226.27 394.28 205.97 395.23 205.16"/><polygon class="cls-6" points="428.32 229.65 428.04 229.75 427.76 229.92 427.63 230 415.82 229.66 407.97 229.43 407.97 229.43 406.15 229.38 406.05 229.38 384.33 229.26 390.9 214.35 390.93 214.31 390.96 214.24 393.69 208.42 393.72 208.37 394.58 206.54 395.23 205.16 400.63 209.16 400.76 209.25 416.66 221.02 418.36 222.28 428.32 229.65"/><polygon class="cls-3" points="427.63 230 414.56 238.16 414.01 238.49 406.04 243.04 384.33 229.26 406.05 229.38 406.15 229.38 407.97 229.43 415.82 229.66 427.63 230"/><polygon class="cls-9" points="520.03 92.28 488.94 209 467.45 219.81 506.69 94.47 520.03 92.28"/><polygon class="cls-6" points="479.89 270.86 485.97 269.28 485.69 284.62 479.24 277.12 479.89 270.86"/><polygon class="cls-10" points="255.73 108.77 267.11 156.08 227.96 157.88 255.73 108.77"/><polygon class="cls-8" points="296.97 137.59 283.7 145.84 267.11 156.08 255.73 108.77 283.13 127.92 296.97 137.59"/><polygon class="cls-11" points="278.11 223.58 246.44 213.34 227.96 157.88 267.11 156.08 278.11 223.58"/><polygon class="cls-9" points="300.58 203.01 278.11 223.58 267.11 156.08 283.7 145.84 296.97 137.59 300.58 203.01"/><polygon class="cls-12" points="320.11 93.51 320.11 203.01 300.58 203.01 296.97 137.59 283.13 127.92 281.71 74.64 320.11 93.51"/><polygon class="cls-2" points="335.02 198.53 320.13 202.8 320.13 93.3 332.08 88.09 335.02 198.53"/><polygon class="cls-12" points="407.9 145.75 390.45 206.52 361.63 215.43 378.03 145.75 407.9 145.75"/><polygon class="cls-10" points="384.76 102.8 407.9 145.77 378.03 145.75 384.76 102.8"/><polygon class="cls-13" points="363.43 74.64 333.29 87.82 332.05 88.29 320.11 93.51 315.84 41.55 363.43 74.64"/><polygon class="cls-14" points="320.11 93.51 281.71 74.64 315.84 41.55 320.11 93.51"/><polygon class="cls-15" points="368.08 228.99 330.73 238.56 320.11 203.01 334.99 198.74 361.63 215.43 368.08 228.99"/><polygon class="cls-13" points="378.03 145.75 361.63 215.43 335.02 198.53 349.59 126.59 360.78 134.09 360.78 134.18 378.03 145.75"/><polygon class="cls-11" points="384.76 102.8 378.03 145.75 360.78 134.18 360.78 134.09 349.59 126.59 361.54 118.54 384.76 102.8"/><polygon class="cls-9" points="363.43 74.64 361.54 118.54 349.59 126.59 335.02 198.53 332.05 88.29 363.43 74.64"/><polygon class="cls-2" points="363.46 260.25 340.7 260.25 314.75 262.74 330.75 238.56 368.08 228.96 363.46 260.25"/><polygon class="cls-11" points="330.73 238.56 300.86 230.12 278.11 223.58 300.58 203.01 320.11 203.01 330.73 238.56"/><polygon class="cls-8" points="314.75 262.74 274.17 250.08 278.13 223.63 330.75 238.56 314.75 262.74"/><polygon class="cls-10" points="400.08 247.8 365.3 247.8 368.08 228.96 400.08 228.25 400.08 247.8"/><polygon class="cls-9" points="424.25 230.03 412.16 216.94 400.08 230.03 400.08 247.8 424.25 230.03"/><polygon class="cls-15" points="246.49 213.32 278.13 223.63 274.17 250.08 237.96 262.74 246.49 213.32"/><polygon class="cls-13" points="400.08 228.25 368.08 228.96 361.68 215.45 390.48 206.56 412.16 216.94 400.08 228.25"/><polygon class="cls-16" points="245.78 215.45 237.96 262.74 214.49 239.09 245.78 215.45"/><polygon class="cls-10" points="21.39 134.65 38.62 180.16 0 186.86 21.39 134.65"/><polygon class="cls-8" points="65.92 158.06 53.79 167.91 38.62 180.16 21.39 134.65 50.98 150.21 65.92 158.06"/><path class="cls-11" d="M45.39,243.36,58,245.74,38.62,180.16,0,186.86l8.19,17c10.3,10,18.78,21.55,27.05,33.25A27,27,0,0,1,45.39,243.36Z"/><polygon class="cls-9" points="77.72 222.51 58.01 245.74 38.62 180.16 53.79 167.91 65.92 158.06 77.72 222.51"/><polygon class="cls-12" points="83.33 111.42 97.09 220.05 77.72 222.51 65.92 158.06 50.98 150.21 42.87 97.53 83.33 111.42"/><polygon class="cls-2" points="111.33 213.74 97.09 219.84 83.33 111.21 94.53 104.54 111.33 213.74"/><polygon class="cls-12" points="176.99 152.21 167.32 214.69 139.85 227.16 147.36 155.97 176.99 152.21"/><polygon class="cls-10" points="148.64 112.51 176.99 152.24 147.36 155.97 148.64 112.51"/><polygon class="cls-13" points="123.94 87.26 95.69 104.12 94.53 104.75 83.33 111.42 72.57 60.41 123.94 87.26"/><polygon class="cls-14" points="83.33 111.42 42.87 97.53 72.57 60.41 83.33 111.42"/><polygon class="cls-15" points="147.95 239.79 112.09 253.99 97.09 220.05 111.32 213.95 139.85 227.16 147.95 239.79"/><polygon class="cls-13" points="147.36 155.97 139.85 227.16 111.32 213.74 116.74 140.54 128.78 146.56 128.79 146.66 147.36 155.97"/><polygon class="cls-11" points="148.64 112.51 147.36 155.97 128.79 146.66 128.78 146.56 116.74 140.54 127.58 131.04 148.64 112.51"/><polygon class="cls-9" points="123.94 87.26 127.58 131.04 116.74 140.54 111.32 213.74 94.53 104.75 123.94 87.26"/><polygon class="cls-2" points="147.29 271.39 124.72 274.25 99.28 279.98 112.12 253.99 147.94 239.77 147.29 271.39"/><polygon class="cls-11" points="112.09 253.99 81.41 249.37 58.01 245.74 77.72 222.51 97.09 220.05 112.09 253.99"/><path class="cls-8" d="M58,245.79l-.47,20.75a61.07,61.07,0,0,1,1.12,6.21L99.28,280l12.84-26Z"/><polygon class="cls-10" points="182.06 254.44 147.55 258.81 147.94 239.77 179.6 235.04 182.06 254.44"/><polygon class="cls-9" points="203.81 233.77 190.17 222.31 179.82 236.81 182.06 254.44 203.81 233.77"/><path class="cls-15" d="M57.57,266.54,58,245.79,45.4,243.37C51.64,249.31,55.58,258,57.57,266.54Z"/><polygon class="cls-13" points="179.6 235.04 147.94 239.77 139.9 227.17 167.35 214.74 190.17 222.31 179.6 235.04"/><polygon class="cls-2" points="237.28 231.28 226.03 242.91 204.57 252.16 184.84 222.1 213.48 164.16 228.7 163.01 237.28 231.28"/><polygon class="cls-17" points="200.25 140.45 213.48 164.16 184.84 222.1 165.81 214.86 168.2 151.6 200.25 140.45"/><polygon class="cls-6" points="213.35 113.47 233.19 137.49 228.7 163.01 213.48 164.16 200.25 140.45 213.35 113.47"/><polygon class="cls-1" points="200.25 140.45 168.2 151.6 213.35 113.47 200.25 140.45"/><polygon class="cls-16" points="165.81 214.86 147.67 241.16 143.24 201.52 168.2 151.6 165.81 214.86"/><polygon class="cls-6" points="165.81 214.86 184.84 222.1 204.57 252.16 193.6 258.77 147.67 241.16 165.81 214.86"/><polygon class="cls-5" points="233.19 137.49 251.52 169.86 248.1 223.13 237.28 231.28 228.7 163.01 233.19 137.49"/><path class="cls-18" d="M497.84,393.77a46.7,46.7,0,0,1-6.34,65.75,42,42,0,0,1-3.6,2.68c-.62.42-1.24.81-1.84,1.19l-.05,0c-.62.36-1.22.71-1.85,1.05-1.29.68-2.56,1.32-3.89,1.89a46.7,46.7,0,0,1-54.06-12.81,1.76,1.76,0,0,1-.26-.28l-.12-.14a46.29,46.29,0,0,1-10.56-26.85c0-.16,0-.31,0-.47a46.41,46.41,0,0,1,1.54-14.46c.27-1,.56-2,.9-3,.12-.36.25-.7.38-1,.22-.66.47-1.28.74-1.91s.55-1.31.85-1.94c.47-1,1-2,1.53-2.93.29-.54.58-1,.9-1.55.54-.85,1.09-1.68,1.67-2.51,0,0,0,0,0-.07.6-.81,1.21-1.64,1.87-2.41.27-.35.56-.71.85-1a3.19,3.19,0,0,0,.35-.41c.61-.68,1.24-1.35,1.89-2a36.72,36.72,0,0,1,3.36-3.1,46.69,46.69,0,0,1,65.75,6.31Z"/><path class="cls-19" d="M448.77,468.29A46.64,46.64,0,0,1,415.1,424a2.3,2.3,0,0,1,0-.38v-.18A46.44,46.44,0,0,1,424,396l.27-.39a45.81,45.81,0,0,1,10.49-10.17,46.59,46.59,0,0,0-10.38,10.17l-.27.39a46.32,46.32,0,0,0-8.93,27.44v.18a1.54,1.54,0,0,0,0,.38A46.68,46.68,0,0,0,448.77,468.29Z"/><path class="cls-20" d="M288.62,396l.1.15a2,2,0,0,1,.21.33,46.72,46.72,0,0,1-10.68,64.74,43.88,43.88,0,0,1-3.85,2.52,46.65,46.65,0,0,1-61-12.43,2.94,2.94,0,0,1-.35-.44,46.7,46.7,0,0,1,6.8-62.33,40.35,40.35,0,0,1,3.59-2.91,46.7,46.7,0,0,1,41.45-6.76l.45.16A46.42,46.42,0,0,1,288.62,396Z"/><path class="cls-21" d="M149.2,424a46.66,46.66,0,0,1-46.68,46.12,43.8,43.8,0,0,1-4.61-.22,45.57,45.57,0,0,1-5.25-.84c-.61-.12-1.2-.25-1.79-.41-.05,0-.07,0-.09,0-.62-.14-1.23-.32-1.84-.5-.3-.09-.59-.19-.89-.3q-.81-.24-1.59-.54c-.72-.25-1.43-.55-2.11-.82s-1.41-.62-2.09-1-1.34-.65-2-1q-2-1.08-3.86-2.34a47.72,47.72,0,0,1-6.9-5.7c-.53-.52-1-1.07-1.55-1.61s-1-1.14-1.47-1.7-.94-1.16-1.39-1.78-.8-1.09-1.18-1.63a1.83,1.83,0,0,1-.27-.39c-.78-1.18-1.53-2.4-2.21-3.65-.36-.66-.7-1.32-1-2a41.61,41.61,0,0,1-2.36-5.93c-.3-.86-.55-1.75-.77-2.66-.21-.75-.37-1.5-.53-2.25a.13.13,0,0,1,0-.09c-.16-.75-.27-1.47-.38-2.22a45,45,0,0,1-.55-7.11c0-1,0-1.93.09-2.89s.14-1.88.25-2.81c0,0,0,0,0-.07.14-.91.27-1.82.43-2.7a45.59,45.59,0,0,1,1.32-5.39,46.63,46.63,0,0,1,5.81-12.13,1.81,1.81,0,0,1,.23-.36c.46-.64.91-1.27,1.39-1.91a48.58,48.58,0,0,1,3.49-4.09c.62-.63,1.28-1.27,1.91-1.86a48.87,48.87,0,0,1,4.16-3.43l3.5,9.81V424Z"/><path class="cls-12" d="M246.24,469.93a43.94,43.94,0,0,1-4.59.22A46.67,46.67,0,0,1,195,424a5.24,5.24,0,0,1,0-.56,46.61,46.61,0,0,1,19.58-38,45.16,45.16,0,0,1,11.28-5.93v0a47.07,47.07,0,0,1,15.86-2.75,38.25,38.25,0,0,1,4.56.25,45.93,45.93,0,0,0-22.53,8.45,46.61,46.61,0,0,0-19.58,38,3.51,3.51,0,0,0,0,.56A46.65,46.65,0,0,0,246.24,469.93Z"/><path class="cls-12" d="M455.12,469.68c.69.09,1.37.18,2.05.25a41.18,41.18,0,0,1-4.45.22A46.67,46.67,0,0,1,406,424a2.3,2.3,0,0,1,0-.38v-.18A46.32,46.32,0,0,1,414.92,396c.09-.14.18-.25.28-.39a46.83,46.83,0,0,1,37.52-18.87,37,37,0,0,1,4.49.25,27.31,27.31,0,0,0-2.72.34,4,4,0,0,1-.52.09c-.43.07-.89.16-1.32.25-1,.18-2,.43-3,.68a.07.07,0,0,1-.06,0c-1,.28-1.93.57-2.89.89-.57.18-1.11.39-1.68.61-1,.39-2,.82-3,1.3-.64.29-1.27.61-1.89.95s-1.2.66-1.79,1a6.91,6.91,0,0,0-1,.57,45.56,45.56,0,0,0-13.1,11.92L424,396a46.44,46.44,0,0,0-8.91,27.44v.18a2.3,2.3,0,0,0,0,.38,46.64,46.64,0,0,0,33.67,44.27,40.84,40.84,0,0,0,4.2,1c.7.14,1.38.25,2.09.37Z"/><path class="cls-19" d="M448.77,468.29A46.64,46.64,0,0,1,415.1,424a2.3,2.3,0,0,1,0-.38v-.18A46.44,46.44,0,0,1,424,396l.27-.39a45.81,45.81,0,0,1,10.49-10.17,46.59,46.59,0,0,0-10.38,10.17l-.27.39a46.32,46.32,0,0,0-8.93,27.44v.18a1.54,1.54,0,0,0,0,.38A46.68,46.68,0,0,0,448.77,468.29Z"/><path class="cls-12" d="M97.91,469.94a43.68,43.68,0,0,1-4.59.22A46.67,46.67,0,0,1,46.62,424a5.52,5.52,0,0,1,0-.57,46.61,46.61,0,0,1,19.58-38,44.48,44.48,0,0,1,7.09-4.16l1.61,4.52a40.93,40.93,0,0,0-4.16,3.43c-.66.59-1.29,1.23-1.91,1.86a43.58,43.58,0,0,0-3.49,4.09c-.12.14-.23.3-.34.43-.37.48-.71,1-1.05,1.48a1.81,1.81,0,0,0-.23.36,44.49,44.49,0,0,0-5.81,12.13A38.9,38.9,0,0,0,56.57,415c-.18.88-.32,1.79-.43,2.7,0,0,0,0,0,.07a21.89,21.89,0,0,0-.25,2.81c-.09,1-.11,1.91-.11,2.89a5.52,5.52,0,0,0,0,.57,42.85,42.85,0,0,0,.55,6.54c.09.75.22,1.47.38,2.22a.13.13,0,0,0,0,.09c.14.75.32,1.5.53,2.25.22.91.47,1.8.77,2.66a41.61,41.61,0,0,0,2.36,5.93c.32.68.66,1.34,1,2a38.93,38.93,0,0,0,2.21,3.65,1.83,1.83,0,0,0,.27.39c.36.54.75,1.09,1.18,1.63a16.73,16.73,0,0,0,1.39,1.78,21.3,21.3,0,0,0,1.47,1.7,16.84,16.84,0,0,0,1.55,1.61,42.42,42.42,0,0,0,6.9,5.7,35.4,35.4,0,0,0,3.86,2.34c.66.37,1.32.71,2,1s1.39.66,2.09,1,1.41.57,2.11.82q.78.3,1.59.54c.3.11.59.21.89.3.61.18,1.2.36,1.84.5,0,0,0,0,.09,0a15.48,15.48,0,0,0,1.79.41A45.57,45.57,0,0,0,97.91,469.94Z"/><rect class="cls-10" x="68.27" y="399.46" width="5.87" height="36.1" rx="2.93" transform="translate(89.51 -5.63) rotate(12.16)"/><rect class="cls-10" x="124.07" y="411.35" width="5.87" height="36.1" rx="2.93" transform="translate(93.26 -17.11) rotate(12.16)"/><polygon class="cls-1" points="248.84 419.73 234.03 432.98 230.32 411.09 242.24 416.25 248.84 419.73"/><polygon class="cls-8" points="250.45 437.34 238.51 439.65 234.03 432.98 248.84 419.73 250.45 437.34"/><polygon class="cls-6" points="248.84 419.73 242.24 416.25 230.32 411.09 236.8 409.34 237.27 409.22 248.34 405.73 248.68 415.34 248.74 417.58 248.84 419.73"/><polygon class="cls-3" points="268.26 430.54 248.84 419.73 248.68 415.8 248.34 406.22 248.63 406.14 260.29 413.6 266.01 417.27 268.26 430.54"/><polygon class="cls-9" points="266.01 417.27 260.29 413.6 248.34 405.96 248.34 405.73 260.98 404.68 263.09 408.34 265.09 411.8 266.01 417.27"/><polygon class="cls-7" points="248.84 419.73 268.26 430.54 250.45 437.34 248.84 419.73"/><polygon class="cls-1" points="97.44 419.52 82.16 433.2 78.33 410.61 90.63 415.94 97.44 419.52"/><polygon class="cls-8" points="99.1 437.7 86.78 440.09 82.16 433.2 97.44 419.52 99.1 437.7"/><polygon class="cls-6" points="97.44 419.52 90.63 415.94 78.33 410.61 85.01 408.8 85.5 408.67 96.92 405.08 97.27 414.99 97.34 417.3 97.44 419.52"/><polygon class="cls-3" points="117.49 430.69 97.44 419.52 97.28 415.47 96.93 405.58 97.22 405.5 109.25 413.2 115.17 416.99 117.49 430.69"/><polygon class="cls-9" points="115.17 416.99 109.25 413.2 96.93 405.31 96.92 405.08 109.97 403.99 112.15 407.77 114.21 411.34 115.17 416.99"/><polygon class="cls-7" points="97.44 419.52 117.49 430.69 99.1 437.7 97.44 419.52"/><polygon class="cls-14" points="549.72 190.11 539.43 213.73 502.84 213.73 491.58 190.31 491.58 190.11 549.72 190.11"/><polygon class="cls-11" points="502.84 213.73 445.13 213.73 458.19 190.31 458.19 190.11 491.58 190.11 491.58 190.31 502.84 213.73"/><polygon class="cls-22" points="458.19 190.11 458.19 190.31 445.13 213.73 395.39 213.73 408.68 190.31 408.68 190.11 458.19 190.11"/><path class="cls-16" d="M399.37,396h15.55A46.32,46.32,0,0,0,406,423.46v.18H383.92Z"/><polygon class="cls-9" points="408.68 190.11 408.68 190.31 395.39 213.73 345.54 213.73 345.54 213.5 336.68 190.31 336.68 190.11 408.68 190.11"/><polygon class="cls-9" points="399.37 396.02 383.92 423.64 359.62 423.64 334.86 396.02 399.37 396.02"/><polygon class="cls-22" points="334.86 396.02 359.62 423.64 312.6 423.64 312.6 423.46 321.78 396.02 334.86 396.02"/><polygon class="cls-14" points="345.54 213.5 345.54 213.73 289.46 213.73 298.36 190.11 336.68 190.11 336.68 190.31 345.54 213.5"/><path class="cls-13" d="M321.78,396l-9.18,27.44v.18H297.52v-.18a46.44,46.44,0,0,0-8.9-27.44Z"/><polygon class="cls-13" points="297.52 190.31 288.62 213.93 233.79 213.93 223.8 190.31 297.52 190.31"/><polygon class="cls-12" points="223.8 190.31 233.79 213.93 154.98 213.93 165.65 190.31 223.8 190.31"/><path class="cls-2" d="M185,395.63h19.17a46.33,46.33,0,0,0-9.2,27.83,5.24,5.24,0,0,0,0,.56H161.56Z"/><polygon class="cls-10" points="184.96 395.63 161.56 424.02 136.58 424.02 129.31 395.63 184.96 395.63"/><polygon class="cls-10" points="165.65 190.31 154.98 213.93 98.65 213.93 109.78 190.31 165.65 190.31"/><polygon class="cls-13" points="129.31 395.63 136.58 424.02 87.75 424.02 103.64 395.63 129.31 395.63"/><polygon class="cls-11" points="109.78 190.31 98.65 213.93 52.54 213.93 46.41 190.31 109.78 190.31"/><polygon class="cls-11" points="103.64 395.63 87.75 424.02 78.37 424.02 78.37 395.63 103.64 395.63"/><polygon class="cls-2" points="46.41 190.31 52.54 213.93 1.67 213.93 1.67 190.31 46.41 190.31"/><polygon class="cls-2" points="470.6 433.57 466.88 436.27 460.41 437.81 456.37 428.41 467.25 413.6 471.56 414.03 470.6 433.57"/><polygon class="cls-17" points="464.71 406.3 467.25 413.6 456.37 428.41 451.39 425.45 455.18 407.85 464.71 406.3"/><polygon class="cls-6" points="469.71 399.39 474.08 407.1 471.56 414.03 467.25 413.6 464.71 406.3 469.71 399.39"/><polygon class="cls-1" points="464.71 406.3 455.18 407.85 469.71 399.39 464.71 406.3"/><polygon class="cls-16" points="451.39 425.45 445.02 431.92 445.73 420.6 455.18 407.85 451.39 425.45"/><polygon class="cls-6" points="451.39 425.45 456.37 428.41 460.41 437.81 457.01 439.12 445.02 431.92 451.39 425.45"/><polygon class="cls-5" points="474.08 407.1 477.62 417.07 474.04 431.82 470.6 433.57 471.56 414.03 474.08 407.1"/><rect class="cls-10" x="217.61" y="403.99" width="5.87" height="36.1" rx="2.93"/><rect class="cls-10" x="274.66" y="403.86" width="5.87" height="36.1" rx="2.93"/><rect class="cls-10" x="437.27" y="387.19" width="5.87" height="36.1" rx="2.93" transform="translate(321.15 -181.13) rotate(35.89)"/><rect class="cls-10" x="483.56" y="420.53" width="5.87" height="36.1" rx="2.93" transform="translate(349.49 -201.94) rotate(35.89)"/><path class="cls-23" d="M531.47,213.93l-13.86,44.7L503.3,304.78l-13.56,43.77-9.88,31.84a46.51,46.51,0,0,0-18.08-3.64,38.25,38.25,0,0,0-4.56.25,37.25,37.25,0,0,0-4.5-.25,46.79,46.79,0,0,0-37.52,18.88H396l60.81-181.69h74.71Z"/><polygon class="cls-10" points="456.76 213.93 456.76 213.94 395.95 395.63 377.62 395.63 438.43 213.93 456.76 213.93"/><polygon class="cls-11" points="438.43 213.93 377.62 395.63 372.97 395.63 433.78 213.94 433.78 213.93 438.43 213.93"/><polygon class="cls-24" points="433.78 213.93 433.78 213.94 372.97 395.63 322.26 395.63 383.07 213.93 433.78 213.93"/><polygon class="cls-10" points="383.07 213.93 322.26 395.63 303.93 395.63 364.74 213.94 364.74 213.93 383.07 213.93"/><polygon class="cls-11" points="364.74 213.93 364.74 213.94 303.93 395.63 299.28 395.63 360.09 213.94 360.09 213.93 364.74 213.93"/><path class="cls-25" d="M360.09,213.93h0L299.28,395.63H288.35a46.68,46.68,0,0,0-37.52-18.88,39.21,39.21,0,0,0-4.61.25,38.3,38.3,0,0,0-4.57-.25,47,47,0,0,0-15.85,2.75l11-30.95,15.6-43.77,16.42-46.13h0v0l15.93-44.7Z"/><path class="cls-26" d="M284.81,213.93l-15.93,44.7v0h0l-16.42,46.13-15.6,43.77-11,30.95v0a45.34,45.34,0,0,0-11.29,5.92,46.63,46.63,0,0,0-10.38,10.18H78.37l-3.5-9.81-1.61-4.52L61.59,348.55,46,304.78h0L29.56,258.65l0,0-15.92-44.7Z"/><rect class="cls-9" x="112.09" y="213.6" width="18.19" height="182.08"/><rect class="cls-13" x="130.71" y="213.6" width="4.41" height="182.08"/><rect class="cls-9" x="170.55" y="213.94" width="18.19" height="182.08"/><rect class="cls-13" x="189.16" y="213.94" width="4.41" height="182.08"/></g></g></svg>