<svg xmlns="http://www.w3.org/2000/svg" xmlns:xlink="http://www.w3.org/1999/xlink" viewBox="0 0 1001.45 812.25"><defs><style>.cls-1{fill:none;}.cls-2{isolation:isolate;}.cls-3{fill:#9fb6bc;}.cls-20,.cls-4{mix-blend-mode:multiply;opacity:0.15;}.cls-5{clip-path:url(#clip-path);}.cls-20,.cls-6{fill:#323738;}.cls-7{fill:url(#Naamloos_verloop_2);}.cls-8{fill:url(#Naamloos_verloop_7);}.cls-9{fill:url(#Naamloos_verloop_7-2);}.cls-10{fill:url(#Naamloos_verloop_2-2);}.cls-11{fill:url(#Naamloos_verloop_7-3);}.cls-12{fill:#eacfe5;}.cls-13{fill:#c3e5f5;}.cls-14{fill:#9691c6;}.cls-15{fill:#bf9bc8;}.cls-16{fill:#a7aed8;}.cls-17{fill:#ad94c6;}.cls-18{fill:#6b777c;}.cls-19{fill:#919fa3;}.cls-21{fill:url(#Naamloos_verloop_2-3);}.cls-22{fill:url(#Naamloos_verloop_2-4);}.cls-23{clip-path:url(#clip-path-2);}.cls-24{fill:url(#Naamloos_verloop_2-5);}.cls-25{fill:url(#Naamloos_verloop_7-4);}.cls-26{fill:url(#Naamloos_verloop_7-5);}.cls-27{fill:url(#Naamloos_verloop_2-6);}.cls-28{fill:url(#Naamloos_verloop_7-6);}.cls-29{fill:url(#Naamloos_verloop_2-7);}.cls-30{fill:url(#Naamloos_verloop_2-8);}.cls-31{fill:url(#Naamloos_verloop_11);}.cls-32{fill:url(#Naamloos_verloop_7-7);}.cls-33{fill:#afd5f5;}.cls-34{fill:#c2edfc;}.cls-35{fill:#a7b2f9;}.cls-36{fill:#c6d2f9;}.cls-37{fill:#a8b2f5;}.cls-38{fill:#9f97f7;}.cls-39{fill:#bb98ef;}.cls-40{fill:#a296d1;}.cls-41{fill:#d99cee;}.cls-42{fill:#f5d3fa;}.cls-43{fill:#d99cfa;}.cls-44{fill:#d2fdfe;}</style><clipPath id="clip-path"><rect class="cls-1" x="472.26" y="138.67" width="52.07" height="673.88" transform="translate(-186.34 551.61) rotate(-50)"/></clipPath><linearGradient id="Naamloos_verloop_2" x1="-273.97" y1="2.45" x2="16.45" y2="2.45" gradientTransform="translate(186.45 274.15) scale(0.67 1)" gradientUnits="userSpaceOnUse"><stop offset="0" stop-color="#f5d3fa"/><stop offset="1" stop-color="#c6d2f9"/></linearGradient><linearGradient id="Naamloos_verloop_7" x1="-1064.97" y1="15.88" x2="-981.66" y2="15.88" gradientTransform="translate(471.12 -525.54) rotate(-65)" gradientUnits="userSpaceOnUse"><stop offset="0" stop-color="#c6d2f9"/><stop offset="1" stop-color="#f5d3fa"/></linearGradient><linearGradient id="Naamloos_verloop_7-2" x1="-5367.06" y1="-916.13" x2="-5076.64" y2="-916.13" gradientTransform="matrix(0.67, 0, 0, -1, 3747.93, -798.38)" xlink:href="#Naamloos_verloop_7"/><linearGradient id="Naamloos_verloop_2-2" x1="-4493.19" y1="-902.7" x2="-4409.84" y2="-902.7" gradientTransform="matrix(-0.82, 0.57, 0.57, 0.82, -2773.72, 3341.51)" xlink:href="#Naamloos_verloop_2"/><linearGradient id="Naamloos_verloop_7-3" x1="-581.88" y1="-419.31" x2="-544.53" y2="-419.31" gradientTransform="matrix(0.64, -0.77, 0.77, 0.64, 824.72, 14.33)" xlink:href="#Naamloos_verloop_7"/><linearGradient id="Naamloos_verloop_2-3" x1="-593.95" y1="450.2" x2="-563.19" y2="450.2" gradientTransform="matrix(0.64, -0.77, 0.77, 0.64, 824.72, 14.33)" xlink:href="#Naamloos_verloop_2"/><linearGradient id="Naamloos_verloop_2-4" x1="-3665.39" y1="450.2" x2="-3634.63" y2="450.2" gradientTransform="matrix(-0.64, 0.77, 0.77, 0.64, -1873.59, 3230.04)" xlink:href="#Naamloos_verloop_2"/><clipPath id="clip-path-2"><rect class="cls-1" x="477.11" y="143.66" width="52.07" height="673.88" transform="matrix(-0.64, -0.77, 0.77, -0.64, 458.41, 1174.97)"/></clipPath><linearGradient id="Naamloos_verloop_2-5" x1="-428.64" y1="-209" x2="-138.22" y2="-209" gradientTransform="matrix(0.67, 0, 0, -1, 1092.44, 72.58)" xlink:href="#Naamloos_verloop_2"/><linearGradient id="Naamloos_verloop_7-4" x1="-1169.08" y1="-195.57" x2="-1085.77" y2="-195.57" gradientTransform="matrix(-0.42, -0.91, -0.91, 0.42, 294.68, -525.54)" xlink:href="#Naamloos_verloop_7"/><linearGradient id="Naamloos_verloop_7-5" x1="-5076.03" y1="-1047.2" x2="-4785.62" y2="-1047.2" gradientTransform="translate(4087.33 1169.93) scale(0.67 1)" xlink:href="#Naamloos_verloop_7"/><linearGradient id="Naamloos_verloop_2-6" x1="-4297.3" y1="-1033.77" x2="-4213.95" y2="-1033.77" gradientTransform="matrix(0.82, 0.57, -0.57, 0.82, 3539.52, 3341.51)" xlink:href="#Naamloos_verloop_2"/><linearGradient id="Naamloos_verloop_7-6" x1="-737.17" y1="-596.61" x2="-699.82" y2="-596.61" gradientTransform="matrix(-0.64, -0.77, -0.77, 0.64, -58.92, 14.33)" xlink:href="#Naamloos_verloop_7"/><linearGradient id="Naamloos_verloop_2-7" x1="-749.24" y1="272.9" x2="-718.48" y2="272.9" gradientTransform="matrix(-0.64, -0.77, -0.77, 0.64, -58.92, 14.33)" xlink:href="#Naamloos_verloop_2"/><linearGradient id="Naamloos_verloop_2-8" x1="-3510.1" y1="272.9" x2="-3479.34" y2="272.9" gradientTransform="matrix(0.64, 0.77, -0.77, 0.64, 2639.39, 3230.04)" xlink:href="#Naamloos_verloop_2"/><linearGradient id="Naamloos_verloop_11" x1="305.38" y1="605.43" x2="701.59" y2="338.51" gradientUnits="userSpaceOnUse"><stop offset="0" stop-color="#dde4fb"/><stop offset="1" stop-color="#f9e5fc"/></linearGradient><linearGradient id="Naamloos_verloop_7-7" x1="331.03" y1="588.15" x2="675.86" y2="355.85" gradientTransform="matrix(1, 0, 0, 1, 0, 0)" xlink:href="#Naamloos_verloop_7"/></defs><g class="cls-2"><g id="Layer_2" data-name="Layer 2"><g id="Laag_1" data-name="Laag 1"><rect class="cls-3" x="472.26" y="138.67" width="52.07" height="673.88" transform="translate(-186.34 551.61) rotate(-50)"/><g class="cls-4"><g class="cls-5"><circle class="cls-6" cx="503.15" cy="472.2" r="253.61"/></g></g><rect class="cls-7" x="2.04" y="240.3" width="195.48" height="72.6" transform="translate(-193.07 250.14) rotate(-65)"/><polygon class="cls-8" points="25.57 349.84 33.21 419.37 80.51 467.38 91.38 380.52 25.57 349.84"/><rect class="cls-9" x="135.34" y="81.44" width="195.48" height="72.6" transform="translate(491.54 80.5) rotate(145)"/><polygon class="cls-10" points="292.32 31.94 362.14 27.36 417.64 65.61 333.96 91.42 292.32 31.94"/><polygon class="cls-11" points="108.19 172.67 109.07 149.04 132.19 144.07 173.84 203.54 108.19 172.67"/><polygon class="cls-12" points="89.64 132.72 109.07 149.04 108.19 172.67 87.29 154.85 89.64 132.72"/><polygon class="cls-13" points="89.64 132.72 109.07 149.04 132.19 144.07 111.09 126.61 89.64 132.72"/><polygon class="cls-13" points="87.29 154.85 0 351.55 25.57 349.84 108.19 172.67 87.29 154.85"/><polygon class="cls-12" points="0 351.55 8.89 439.04 33.21 419.37 25.57 349.84 0 351.55"/><polygon class="cls-14" points="8.89 439.04 101.4 532.3 80.51 467.38 33.21 419.37 8.89 439.04"/><polygon class="cls-15" points="101.4 532.3 80.51 467.38 91.38 380.52 113.93 409.49 101.4 532.3"/><polygon class="cls-14" points="173.92 203.44 200.55 225.6 113.93 409.49 91.38 380.52 173.92 203.44"/><polygon class="cls-16" points="111.09 126.61 289.62 6.42 292.32 31.94 132.19 144.07 111.09 126.61"/><polygon class="cls-13" points="289.62 6.42 377.29 0 362.14 27.36 292.32 31.94 289.62 6.42"/><polygon class="cls-12" points="377.29 0 485.19 74.9 417.64 65.61 362.14 27.36 377.29 0"/><polygon class="cls-14" points="485.19 74.9 417.64 65.61 333.99 91.39 366.43 108.58 485.19 74.9"/><polygon class="cls-17" points="173.83 203.36 200.59 225.55 366.43 108.58 333.99 91.39 173.83 203.36"/><polygon class="cls-18" points="184.39 212.06 177.5 274.56 233.61 293.09 259.25 275.03 184.39 212.06"/><polygon class="cls-19" points="184.24 212.24 244.53 194.55 272.58 246.65 259.25 275.03 184.24 212.24"/><polygon class="cls-20" points="237.23 290.54 259.25 275.03 270.7 250.65 280.13 258.56 271.83 285.74 246.2 298.07 237.23 290.54"/><polygon class="cls-21" points="759.19 694.53 855.98 775.75 809.62 776.99 749.67 726.69 759.19 694.53"/><polygon class="cls-22" points="759.19 694.53 855.98 775.75 849.16 729.87 789.21 679.57 759.19 694.53"/><polygon class="cls-12" points="759.19 694.53 733.13 672.67 717.52 730.74 749.67 726.69 759.19 694.53"/><polygon class="cls-13" points="809.62 776.99 808.72 807.26 717.52 730.74 749.67 726.69 809.62 776.99"/><polygon class="cls-14" points="808.72 807.26 889.93 804.23 855.98 775.75 809.62 776.99 808.72 807.26"/><polygon class="cls-13" points="759.19 694.53 733.14 672.66 787.61 647.2 789.21 679.57 759.19 694.53"/><polygon class="cls-12" points="849.16 729.87 878.81 723.73 787.61 647.2 789.21 679.57 849.16 729.87"/><polygon class="cls-17" points="878.81 723.73 889.93 804.24 855.98 775.75 849.16 729.87 878.81 723.73"/><rect class="cls-3" x="477.11" y="143.66" width="52.07" height="673.88" transform="matrix(-0.64, -0.77, 0.77, -0.64, 458.41, 1174.97)"/><g class="cls-4"><g class="cls-23"><circle class="cls-6" cx="503.15" cy="472.2" r="253.61"/></g></g><rect class="cls-24" x="803.92" y="245.28" width="195.48" height="72.6" transform="translate(1027.52 1217.78) rotate(-115)"/><polygon class="cls-25" points="975.87 354.83 968.24 424.36 920.93 472.37 910.07 385.51 975.87 354.83"/><rect class="cls-26" x="670.63" y="86.43" width="195.48" height="72.6" transform="translate(209.35 -418.52) rotate(35)"/><polygon class="cls-27" points="709.13 36.93 639.31 32.35 583.81 70.6 667.48 96.41 709.13 36.93"/><polygon class="cls-28" points="893.26 177.66 892.38 154.02 869.26 149.06 827.61 208.53 893.26 177.66"/><polygon class="cls-12" points="911.8 137.71 892.38 154.02 893.26 177.66 914.16 159.84 911.8 137.71"/><polygon class="cls-13" points="911.8 137.71 892.38 154.02 869.26 149.06 890.36 131.59 911.8 137.71"/><polygon class="cls-13" points="914.16 159.84 1001.45 356.54 975.87 354.83 893.26 177.66 914.16 159.84"/><polygon class="cls-12" points="1001.45 356.54 992.56 444.02 968.24 424.36 975.87 354.83 1001.45 356.54"/><polygon class="cls-14" points="992.56 444.02 900.05 537.28 920.93 472.37 968.24 424.36 992.56 444.02"/><polygon class="cls-15" points="900.05 537.28 920.93 472.37 910.07 385.51 887.51 414.48 900.05 537.28"/><polygon class="cls-14" points="827.52 208.42 800.9 230.59 887.51 414.48 910.07 385.51 827.52 208.42"/><polygon class="cls-16" points="890.36 131.59 711.83 11.41 709.13 36.93 869.26 149.06 890.36 131.59"/><polygon class="cls-13" points="711.83 11.41 624.16 4.99 639.31 32.35 709.13 36.93 711.83 11.41"/><polygon class="cls-12" points="624.16 4.99 516.25 79.89 583.81 70.6 639.31 32.35 624.16 4.99"/><polygon class="cls-14" points="516.25 79.89 583.81 70.6 667.46 96.38 635.01 113.56 516.25 79.89"/><polygon class="cls-17" points="827.62 208.35 800.86 230.54 635.01 113.56 667.46 96.38 827.62 208.35"/><polygon class="cls-18" points="817.06 217.05 823.95 279.55 767.84 298.08 742.2 280.02 817.06 217.05"/><polygon class="cls-19" points="817.21 217.23 756.92 199.53 728.86 251.63 742.2 280.02 817.21 217.23"/><polygon class="cls-20" points="764.22 295.53 742.2 280.02 730.75 255.64 721.32 263.55 729.62 290.73 755.24 303.06 764.22 295.53"/><polygon class="cls-29" points="242.26 699.52 145.47 780.74 191.83 781.98 251.78 731.68 242.26 699.52"/><polygon class="cls-30" points="242.25 699.52 145.47 780.74 152.29 734.86 212.24 684.56 242.25 699.52"/><polygon class="cls-12" points="242.25 699.52 268.31 677.66 283.93 735.73 251.78 731.68 242.25 699.52"/><polygon class="cls-13" points="191.83 781.98 192.73 812.25 283.93 735.73 251.78 731.68 191.83 781.98"/><polygon class="cls-14" points="192.73 812.25 111.52 809.22 145.47 780.74 191.83 781.98 192.73 812.25"/><polygon class="cls-13" points="242.26 699.52 268.31 677.65 213.83 652.19 212.24 684.55 242.26 699.52"/><polygon class="cls-12" points="152.29 734.86 122.64 728.71 213.83 652.19 212.24 684.55 152.29 734.86"/><polygon class="cls-17" points="122.64 728.71 111.52 809.22 145.47 780.73 152.29 734.86 122.64 728.71"/><circle class="cls-31" cx="503.15" cy="472.2" r="242.42"/><circle class="cls-32" cx="503.15" cy="472.2" r="210.98"/><polygon class="cls-33" points="424.5 488.88 369.51 476.63 346.29 545.52 386.86 499.59 424.5 488.88"/><polygon class="cls-33" points="411.83 524.56 424.5 488.88 386.86 499.59 411.83 524.56"/><polygon class="cls-34" points="411.83 524.56 386.86 499.59 346.29 545.52 438.05 594.04 411.83 524.56"/><polygon class="cls-33" points="411.83 524.56 411.83 524.56 438.05 594.04 529.82 642.55 411.83 524.56"/><polygon class="cls-33" points="529.82 642.55 661.74 510.7 594.74 519.91 529.82 642.55"/><polygon class="cls-33" points="634.19 436.79 572.06 472.2 624.36 463.84 676.66 495.79 634.19 436.79"/><polygon class="cls-34" points="624.36 463.84 594.74 519.91 661.74 510.7 676.66 495.79 624.36 463.84"/><polygon class="cls-35" points="471.93 467.01 471.93 467.01 495.72 539.16 518.48 543.12 490.95 301.84 452.84 409.12 471.93 467.01"/><polygon class="cls-36" points="519.76 543.34 565.25 529.15 490.95 301.84 518.48 543.12 519.76 543.34"/><polygon class="cls-37" points="594.74 519.91 594.74 519.91 490.95 301.84 565.25 529.15 594.74 519.91"/><polygon class="cls-38" points="452.84 409.12 452.84 409.12 411.83 524.56 471.93 467.01 452.84 409.12"/><polygon class="cls-39" points="411.83 524.56 529.82 642.55 495.72 539.16 411.83 524.56"/><polygon class="cls-40" points="565.25 529.15 565.25 529.15 529.82 642.56 594.74 519.91 565.25 529.15"/><polygon class="cls-41" points="471.93 467.01 411.83 524.56 495.72 539.16 471.93 467.01"/><polygon class="cls-42" points="495.72 539.16 529.82 642.55 518.48 543.12 495.72 539.16"/><polygon class="cls-43" points="565.25 529.15 519.76 543.34 518.48 543.12 529.82 642.56 565.25 529.15"/><polygon class="cls-44" points="572.06 472.2 594.74 519.91 624.36 463.84 572.06 472.2"/></g></g></g></svg>