<svg xmlns="http://www.w3.org/2000/svg" xmlns:xlink="http://www.w3.org/1999/xlink" width="30.979" height="30.979" viewBox="0 0 30.979 30.979">
  <defs>
    <style>
      .cls-1, .cls-4 {
        fill: #fff;
      }

      .cls-2 {
        clip-path: url(#clip-path);
      }

      .cls-3 {
        fill: #b07efa;
      }

      .cls-4 {
        fill-rule: evenodd;
      }
    </style>
    <clipPath id="clip-path">
      <rect id="Rectangle_5443" data-name="Rectangle 5443" class="cls-1" width="30.979" height="30.979" transform="translate(0.926 0.873)"/>
    </clipPath>
  </defs>
  <g id="Group_13148" data-name="Group 13148" class="cls-2" transform="translate(-0.926 -0.873)">
    <path id="Path_30053" data-name="Path 30053" class="cls-3" d="M16.415,31.852A15.49,15.49,0,1,0,.926,16.362,15.49,15.49,0,0,0,16.415,31.852Z"/>
    <path id="Path_30054" data-name="Path 30054" class="cls-4" d="M7.937,16.2q6.773-2.951,9.033-3.891c4.3-1.789,5.2-2.1,5.778-2.11a1.018,1.018,0,0,1,.6.18.652.652,0,0,1,.22.419,2.73,2.73,0,0,1,.026.61c-.233,2.449-1.242,8.393-1.755,11.136-.217,1.161-.645,1.55-1.059,1.588-.9.083-1.583-.594-2.454-1.166-1.363-.894-2.133-1.45-3.457-2.322-1.529-1.008-.538-1.562.334-2.467.228-.237,4.191-3.842,4.268-4.169a.316.316,0,0,0-.072-.274.357.357,0,0,0-.321-.031q-.205.047-6.534,4.318a2.941,2.941,0,0,1-1.68.621,11.05,11.05,0,0,1-2.408-.57c-.97-.315-1.741-.482-1.674-1.017Q6.837,16.636,7.937,16.2Z"/>
  </g>
</svg>
