<svg xmlns="http://www.w3.org/2000/svg" width="32.074"  height="23" viewBox="0 0 32.074 23">
  <defs>
    <style>
      .cls-1 {
        fill: none;
        stroke: #b07efa;
        stroke-linecap: round;
        stroke-linejoin: round;
        stroke-width: 2px;
      }
    </style>
  </defs>
  <g id="Group_13099" data-name="Group 13099" transform="translate(-0.004)">
    <path id="Path_29854" data-name="Path 29854" class="cls-1" d="M1,4A3,3,0,0,1,4.012,1H28.07a3,3,0,0,1,3.007,3V19a3,3,0,0,1-3.007,3H4.012A3,3,0,0,1,1,19Z"/>
    <path id="Path_29855" data-name="Path 29855" class="cls-1" d="M14.537,14.6a4.05,4.05,0,1,0-4.06-4.05A4.055,4.055,0,0,0,14.537,14.6Z"/>
    <path id="Path_29856" data-name="Path 29856" class="cls-1" d="M1,6.5A5.42,5.42,0,0,0,4.832,4.918,5.393,5.393,0,0,0,6.418,1.1"/>
    <path id="Path_29857" data-name="Path 29857" class="cls-1" d="M22.657,20a5.407,5.407,0,0,1,5.413-5.4"/>
  </g>
</svg>
