<svg xmlns="http://www.w3.org/2000/svg" width="28.068" height="29" viewBox="0 0 28.068 29">
  <defs>
    <style>
      .cls-1 {
        fill:#b07efa;
      }
    </style>
  </defs>
  <g id="Group_13101" data-name="Group 13101" transform="translate(-0.758)">
    <path id="Path_29863" data-name="Path 29863" class="cls-1" d="M6.773,8A4,4,0,1,1,9.609,6.828,4.017,4.017,0,0,1,6.773,8Zm0-6a2,2,0,1,0,1.418.586A2.008,2.008,0,0,0,6.773,2Z"/>
    <path id="Path_29864" data-name="Path 29864" class="cls-1" d="M22.812,8a4.005,4.005,0,1,1,2.835-1.172A4.017,4.017,0,0,1,22.812,8Zm0-6a2,2,0,1,0,1.418.586A2.008,2.008,0,0,0,22.812,2Z"/>
    <path id="Path_29865" data-name="Path 29865" class="cls-1" d="M24.817,29h-4.01a2,2,0,0,1-2-2V20h2v7h4.01V18h2V12a1,1,0,0,0-1-1H19.384l-4.591,8L10.2,11H3.766a1,1,0,0,0-1,1v6h2v9h4.01V20h2v7a2,2,0,0,1-2,2H4.769a2,2,0,0,1-2-2V20a2,2,0,0,1-2-2V12A3,3,0,0,1,3.766,9h7.6l3.428,6,3.428-6h7.6a3,3,0,0,1,3.007,3v6a2,2,0,0,1-2,2v7a2,2,0,0,1-2,2Z"/>
  </g>
</svg>
