<svg xmlns="http://www.w3.org/2000/svg" width="30.072" height="28.232" style="margin-top: 2.5px; margin-left: 1px" viewBox="0 0 30.072 28.232">
  <defs>
    <style>
      .cls-1 {
        fill: #b07efa;
      }
    </style>
  </defs>
  <path id="Path_29862" data-name="Path 29862" class="cls-1" d="M7.4,12.351V8.822h14.15v3.529ZM26.861,5.143A2.646,2.646,0,0,0,25.977,0H2.983A2.646,2.646,0,0,0,2.1,5.143V23.82a.883.883,0,0,0,.884.882H5.636v-7.94a.883.883,0,0,1,.884-.882H13.6a.884.884,0,0,1,.807.519,3.527,3.527,0,0,1,1.847-.519H26.861ZM2.983,1.764H25.977a.882.882,0,1,1,0,1.764H2.983a.882.882,0,1,1,0-1.764ZM5.636,7.94a.883.883,0,0,1,.884-.882H22.439a.883.883,0,0,1,.884.882v5.293a.883.883,0,0,1-.884.882H6.52a.883.883,0,0,1-.884-.882Zm7.075,9.7V24.7H7.4V17.645Zm15.035,0A2.65,2.65,0,0,1,30.4,20.292v5.293a2.65,2.65,0,0,1-2.653,2.647H17.133a2.65,2.65,0,0,1-2.653-2.647V20.292a2.65,2.65,0,0,1,2.653-2.647Zm0,8.822a.883.883,0,0,1,.884-.882V23.82a2.65,2.65,0,0,0-2.653,2.647Zm.884-6.176a.883.883,0,0,1-.884-.882H25.977a2.65,2.65,0,0,0,2.653,2.647Zm-11.5-.882a.883.883,0,0,1-.884.882v1.764A2.65,2.65,0,0,0,18.9,19.409Zm-.884,6.176a.883.883,0,0,1,.884.882H18.9a2.65,2.65,0,0,0-2.653-2.647Zm6.191-5.293a2.65,2.65,0,1,0,1.876.775A2.656,2.656,0,0,0,22.439,20.292Z" transform="translate(-0.326)"/>
</svg>
