<svg xmlns="http://www.w3.org/2000/svg" xmlns:xlink="http://www.w3.org/1999/xlink" style="margin-top: 2.5px" width="32.078" height="32" viewBox="0 0 32.078 32">
  <defs>
    <style>
      .cls-1 {
        fill: #fff;
      }

      .cls-2 {
        clip-path: url(#clip-path);
      }

      .cls-3 {
        fill: #b07efa;
      }
    </style>
    <clipPath id="clip-path">
      <rect id="Rectangle_5418" data-name="Rectangle 5418" class="cls-1" width="32.078" height="32" transform="translate(0.484)"/>
    </clipPath>
  </defs>
  <g id="Group_13100" data-name="Group 13100" class="cls-2" transform="translate(-0.484)">
    <path id="Path_29858" data-name="Path 29858" class="cls-3" d="M16.506,0A15.975,15.975,0,0,0,7.029,28.867a6.927,6.927,0,0,1,.038-1.985,14.481,14.481,0,0,1-2.73-3.161H8.329a4.706,4.706,0,0,1,1.452-1.6A24.983,24.983,0,0,1,9.092,16.8h.432a5.961,5.961,0,0,1,.619-1.6H9.1A24.705,24.705,0,0,1,9.86,9.878h5.861v2.844a4.419,4.419,0,0,1,1.6.577V9.878h6.157c.083.319.159.646.229.978a6.36,6.36,0,0,1,1.631-.037q-.093-.472-.2-.941h4.456a14.29,14.29,0,0,1,1.272,4.489,12.9,12.9,0,0,1-.4,5.367,14.374,14.374,0,0,1-.733,2.073,14.758,14.758,0,0,0,1.24,1.105A15.968,15.968,0,0,0,16.523,0Zm.819,1.818c1.69.287,3.3,1.676,4.577,3.98a16.338,16.338,0,0,1,1.093,2.48h-5.67Zm-1.6.063v6.4H10.348A16.358,16.358,0,0,1,11.441,5.8c1.2-2.169,2.7-3.525,4.28-3.916Zm-3.7.433a12.282,12.282,0,0,0-1.99,2.712A18.422,18.422,0,0,0,8.653,8.278H4.336A14.437,14.437,0,0,1,12.026,2.314Zm9.434.148a14.443,14.443,0,0,1,7.25,5.816H24.688a18.349,18.349,0,0,0-1.382-3.252A12.452,12.452,0,0,0,21.46,2.462ZM3.453,9.878H8.2A26.463,26.463,0,0,0,7.5,15.2H2.111A14.3,14.3,0,0,1,3.453,9.879ZM2.111,16.8H7.488a26.741,26.741,0,0,0,.64,5.322H3.453A14.305,14.305,0,0,1,2.111,16.8Z"/>
    <path id="Path_29859" data-name="Path 29859" class="cls-3" d="M24.863,12.086a4.8,4.8,0,1,0,4.812,4.8A4.806,4.806,0,0,0,24.863,12.086Zm0,10.311c-5.315,0-7.7,2.378-7.7,7.68v.64c.024,1.261.583,1.3,1.764,1.28H30.8c1.506,0,1.774,0,1.764-1.28v-.64C32.562,24.775,30.178,22.4,24.863,22.4Z"/>
    <path id="Path_29860" data-name="Path 29860" class="cls-3" d="M14.6,13.885a3.933,3.933,0,1,0,3.942,3.933A3.938,3.938,0,0,0,14.6,13.885Zm0,8.448c-4.355,0-6.308,1.949-6.308,6.293v.524c.02,1.033.478,1.063,1.445,1.049H15.87a8.877,8.877,0,0,1,2.518-7.084A7.883,7.883,0,0,0,14.6,22.333Z"/>
  </g>
</svg>
